<?xml version="1.0" encoding="utf-8"?>
<!-- Generator: Adobe Illustrator 21.0.2, SVG Export Plug-In . SVG Version: 6.00 Build 0)  -->
<svg version="1.1" id="Layer_1" xmlns="http://www.w3.org/2000/svg" xmlns:xlink="http://www.w3.org/1999/xlink" x="0px" y="0px"
	 viewBox="0 0 13.1 13" style="enable-background:new 0 0 13.1 13;" xml:space="preserve">
<style type="text/css">
	.st0{fill:#00547D;}
</style>
<g>
	<g>
		<path id="a" class="st0" d="M13,3.6v5.8c0,2-1.6,3.6-3.6,3.6H3.6C1.6,13,0,11.4,0,9.4V3.6C0,1.6,1.6,0,3.6,0h5.8
			C11.4,0,13,1.6,13,3.6z M11.9,9.4V3.6c0-1.3-1.1-2.4-2.4-2.4l0,0H3.7c-1.3,0-2.4,1.1-2.4,2.4l0,0v5.8c0,1.3,1.1,2.4,2.4,2.4l0,0
			h5.8C10.8,11.8,11.9,10.7,11.9,9.4L11.9,9.4z"/>
	</g>
</g>
<g>
	<g>
		<path id="b" class="st0" d="M9.8,6.3c0,1.8-1.5,3.3-3.3,3.3S3.2,8.1,3.2,6.3S4.7,3,6.5,3S9.8,4.5,9.8,6.3L9.8,6.3z M8.6,6.3
			c0.1-1.2-0.8-2.2-2-2.3S4.4,4.8,4.3,6c0,0.1,0,0.2,0,0.3c0.1,1.2,1.1,2.1,2.3,2C7.7,8.3,8.5,7.4,8.6,6.3z"/>
	</g>
</g>
<g>
	<g>
		<path id="c" class="st0" d="M9.9,2C9.7,2,9.5,2.1,9.3,2.3S9,2.7,9,2.9c0,0.2,0.1,0.4,0.3,0.6c0.2,0.2,0.4,0.2,0.6,0.2
			s0.4-0.1,0.6-0.2c0.2-0.2,0.2-0.4,0.2-0.6c0-0.2-0.1-0.4-0.2-0.6C10.4,2.1,10.2,2,9.9,2z"/>
	</g>
</g>
</svg>
