<?xml version="1.0" encoding="utf-8"?>
<!-- Generator: Adobe Illustrator 21.0.0, SVG Export Plug-In . SVG Version: 6.00 Build 0)  -->
<svg version="1.1" id="Layer_1" xmlns="http://www.w3.org/2000/svg" xmlns:xlink="http://www.w3.org/1999/xlink" x="0px" y="0px"
	 viewBox="0 0 792 612" style="enable-background:new 0 0 792 612;" xml:space="preserve">
<style type="text/css">
	.st0{fill:#E3BB52;}
	.st1{fill:#00512A;}
	.st2{fill:none;stroke:#00512A;}
	.st3{clip-path:url(#SVGID_2_);}
	.st4{clip-path:url(#SVGID_6_);}
	.st5{fill:#005B37;}
	.st6{fill:#005935;}
	.st7{fill:#00613B;}
	.st8{fill:#02633C;}
	.st9{fill:#076940;}
	.st10{clip-path:url(#SVGID_10_);}
	.st11{clip-path:url(#SVGID_16_);}
	.st12{clip-path:url(#SVGID_22_);}
	.st13{fill:url(#SVGID_27_);}
	.st14{fill:url(#SVGID_28_);}
</style>
<g>
	<rect x="101.3" y="366" class="st0" width="625.2" height="3.6"/>
	<g>
		<path class="st1" d="M337.6,414.5v-20.6h3.5V412h12.9v2.4H337.6z"/>
	</g>
	<g>
		<path class="st2" d="M337.6,414.5v-20.6h3.5V412h12.9v2.4H337.6z"/>
	</g>
	<g>
		<path class="st1" d="M703.8,414.3v-20.6h18.9v2.4h-15.4v6.3h14.5v2.4h-14.5v7h16v2.4H703.8z"/>
	</g>
	<g>
		<path class="st2" d="M703.8,414.3v-20.6h18.9v2.4h-15.4v6.3h14.5v2.4h-14.5v7h16v2.4H703.8z"/>
	</g>
	<g>
		<path class="st1" d="M257.6,414v-20.6h11.6c2.4,0,4.2,0.2,5.4,0.6c1.2,0.4,2.1,1,2.8,1.9c0.7,0.9,1.1,1.9,1.1,3.1
			c0,1.6-0.6,2.8-1.9,3.8c-1.3,1-3.1,1.6-5.5,1.8c1,0.4,1.7,0.8,2.2,1.1c1,0.8,1.9,1.7,2.7,2.6l4.6,5.6h-4.3l-3.5-4.3
			c-1.4-1.7-2.4-2.8-3.1-3.4c-0.7-0.6-1.4-1-2-1.2c-0.6-0.2-1.5-0.3-2.7-0.3h-4v9.1H257.6z M261,402.6h7.4c1.6,0,2.9-0.1,3.7-0.4
			c0.8-0.3,1.5-0.6,2-1.2c0.5-0.5,0.7-1.2,0.7-1.9c0-1-0.5-1.9-1.4-2.4c-0.9-0.6-2.3-0.9-4.2-0.9H261V402.6z"/>
	</g>
	<g>
		<path class="st2" d="M257.6,414v-20.6h11.6c2.4,0,4.2,0.2,5.4,0.6c1.2,0.4,2.1,1,2.8,1.9c0.7,0.9,1.1,1.9,1.1,3.1
			c0,1.6-0.6,2.8-1.9,3.8c-1.3,1-3.1,1.6-5.5,1.8c1,0.4,1.7,0.8,2.2,1.1c1,0.8,1.9,1.7,2.7,2.6l4.6,5.6h-4.3l-3.5-4.3
			c-1.4-1.7-2.4-2.8-3.1-3.4c-0.7-0.6-1.4-1-2-1.2c-0.6-0.2-1.5-0.3-2.7-0.3h-4v9.1H257.6z M261,402.6h7.4c1.6,0,2.9-0.1,3.7-0.4
			c0.8-0.3,1.5-0.6,2-1.2c0.5-0.5,0.7-1.2,0.7-1.9c0-1-0.5-1.9-1.4-2.4c-0.9-0.6-2.3-0.9-4.2-0.9H261V402.6z"/>
	</g>
	<g>
		<path class="st1" d="M408.1,415v-20.6h9c2.2,0,3.9,0.1,5.1,0.4c1.5,0.3,2.8,0.9,4,1.8c1.1,0.9,2,2,2.6,3.3
			c0.6,1.3,0.9,2.9,0.9,4.7c0,2.3-0.5,4.3-1.6,5.9c-1.1,1.6-2.4,2.8-4.1,3.5c-1.7,0.7-3.8,1-6.5,1H408.1z M411.5,412.6h5.6
			c2.2,0,4-0.2,5.1-0.7c1.2-0.5,2.1-1.2,2.7-2.3c0.8-1.4,1.2-3.1,1.2-5c0-2.1-0.4-3.7-1.3-4.9s-2-2-3.4-2.4
			c-0.9-0.3-2.4-0.4-4.4-0.4h-5.5V412.6z"/>
	</g>
	<g>
		<path class="st2" d="M408.1,415v-20.6h9c2.2,0,3.9,0.1,5.1,0.4c1.5,0.3,2.8,0.9,4,1.8c1.1,0.9,2,2,2.6,3.3
			c0.6,1.3,0.9,2.9,0.9,4.7c0,2.3-0.5,4.3-1.6,5.9c-1.1,1.6-2.4,2.8-4.1,3.5c-1.7,0.7-3.8,1-6.5,1H408.1z M411.5,412.6h5.6
			c2.2,0,4-0.2,5.1-0.7c1.2-0.5,2.1-1.2,2.7-2.3c0.8-1.4,1.2-3.1,1.2-5c0-2.1-0.4-3.7-1.3-4.9s-2-2-3.4-2.4
			c-0.9-0.3-2.4-0.4-4.4-0.4h-5.5V412.6z"/>
	</g>
	<g>
		<path class="st1" d="M565.2,414.5v-20.6h3.5v20.6H565.2z"/>
	</g>
	<g>
		<path class="st2" d="M565.2,414.5v-20.6h3.5v20.6H565.2z"/>
	</g>
	<g>
		<path class="st1" d="M181.3,403.6c0-3.5,1.2-6.2,3.6-8.1c2.4-1.9,5.4-2.8,8.9-2.8c2.3,0,4.4,0.4,6.3,1.3s3.4,2.1,4.5,3.7
			c1.1,1.6,1.7,3.5,1.7,5.7c0,3-1.1,5.5-3.2,7.4c-2.4,2.1-5.5,3.2-9.3,3.2c-3.9,0-7-1.1-9.3-3.3
			C182.4,408.8,181.3,406.4,181.3,403.6z M184.9,403.6c0,2.5,0.9,4.5,2.6,5.9c1.7,1.4,3.8,2.1,6.3,2.1c2.5,0,4.7-0.7,6.4-2.1
			c1.7-1.4,2.6-3.5,2.6-6.2c0-1.8-0.4-3.4-1.3-4.7c-0.7-1.1-1.7-1.9-3.1-2.6c-1.4-0.6-2.9-1-4.5-1c-2.6,0-4.8,0.7-6.4,2.1
			C185.7,398.5,184.9,400.7,184.9,403.6z"/>
	</g>
	<g>
		<path class="st2" d="M181.3,403.6c0-3.5,1.2-6.2,3.6-8.1c2.4-1.9,5.4-2.8,8.9-2.8c2.3,0,4.4,0.4,6.3,1.3s3.4,2.1,4.5,3.7
			c1.1,1.6,1.7,3.5,1.7,5.7c0,3-1.1,5.5-3.2,7.4c-2.4,2.1-5.5,3.2-9.3,3.2c-3.9,0-7-1.1-9.3-3.3
			C182.4,408.8,181.3,406.4,181.3,403.6z M184.9,403.6c0,2.5,0.9,4.5,2.6,5.9c1.7,1.4,3.8,2.1,6.3,2.1c2.5,0,4.7-0.7,6.4-2.1
			c1.7-1.4,2.6-3.5,2.6-6.2c0-1.8-0.4-3.4-1.3-4.7c-0.7-1.1-1.7-1.9-3.1-2.6c-1.4-0.6-2.9-1-4.5-1c-2.6,0-4.8,0.7-6.4,2.1
			C185.7,398.5,184.9,400.7,184.9,403.6z"/>
	</g>
	<g>
		<defs>
			<polyline id="SVGID_1_" points="77,293 109,293 109,308 77,308 77,293 			"/>
		</defs>
		<clipPath id="SVGID_2_">
			<use xlink:href="#SVGID_1_"  style="overflow:visible;"/>
		</clipPath>
		<g class="st3">
			<defs>
				<path id="SVGID_3_" d="M106.1,295.8c-8.8,2.6-17.3,5.6-25.6,8.8c-0.6,0.1-0.8,0.5-0.6,0.9c0.1,0.3,0.5,0.4,0.9,0.4
					c0.1,0,0.3,0,0.4-0.1c8.4-1,16.6-2.9,24.8-4.7V295.8"/>
			</defs>
			<clipPath id="SVGID_4_">
				<use xlink:href="#SVGID_3_"  style="overflow:visible;"/>
			</clipPath>
			<g style="clip-path:url(#SVGID_4_);">
				
					<image style="overflow:visible;" width="112" height="43" xlink:href="8DEEC28111AD12DE.jpg"  transform="matrix(0.2406 0 0 0.2419 79.406 295.6613)">
				</image>
			</g>
		</g>
	</g>
	<g>
		<defs>
			<polyline id="SVGID_5_" points="289,280 753,280 753,307 289,307 289,280 			"/>
		</defs>
		<clipPath id="SVGID_6_">
			<use xlink:href="#SVGID_5_"  style="overflow:visible;"/>
		</clipPath>
		<g class="st4">
			<defs>
				<path id="SVGID_7_" d="M386.9,282.2c-14,0-28.4,2-42.3,2.9c-18,1.2-34.9,4.6-52.3,7.1v9.2c18.5-0.5,35.9-5.8,54.8-7.1
					c14.5-1,28.6-2,43-2c2.9,0,5.8,0,8.7,0.1c2.4,0,4.6,0.5,7,1c8.6,2,15.2,6.1,23.8,8.1c10.6,2.5,21.3,3.3,32.1,3.3
					c13.2,0,26.4-1.2,39.6-1.9c44.7-2.4,153.3-6.6,216.3-6.6c10.7,0,20,0.1,27.5,0.4c0.3,0,0.6,0,0.8,0c2.3,0,4.4-1.1,4.7-2.6
					c0.4-1.7-1.4-3.4-4-3.8c-10.8-3.2-50.8-4-87.1-4c-27.6,0-53,0.5-61.6,0.8c-47,1.9-92.7,6.6-139.7,7.9c-0.6,0-1.3,0-1.9,0
					c-14.2,0-27-4.1-39.5-8.6C407.3,283.2,397.2,282.2,386.9,282.2"/>
			</defs>
			<clipPath id="SVGID_8_">
				<use xlink:href="#SVGID_7_"  style="overflow:visible;"/>
			</clipPath>
			<g style="clip-path:url(#SVGID_8_);">
				
					<image style="overflow:visible;" width="1913" height="96" xlink:href="8DEEC28111AD12E2.jpg"  transform="matrix(0.24 0 0 0.2411 292.1205 281.9286)">
				</image>
			</g>
		</g>
	</g>
	<polygon class="st5" points="106.1,159.9 106.1,159.9 292.3,159.9 	"/>
	<polygon class="st6" points="268.3,316.8 292.3,340.8 106.1,340.8 130.1,316.8 	"/>
	<polyline class="st6" points="130.1,316.8 106.1,340.8 106.1,159.9 130.1,183.9 130.1,316.8 	"/>
	<polygon class="st7" points="130.1,183.9 106.1,159.9 292.3,159.9 268.3,183.9 	"/>
	<polyline class="st8" points="268.3,183.9 292.3,159.9 292.3,340.8 268.3,316.8 268.3,183.9 	"/>
	<rect x="130.1" y="183.9" class="st9" width="138.2" height="132.9"/>
	<g>
		<path class="st1" d="M319.1,200.1v1.1H298v-1.1h1.3c1.2,0,2.1-0.2,2.8-0.6c0.5-0.3,0.9-0.8,1.2-1.4c0.2-0.5,0.3-1.7,0.3-3.8v-26.6
			c0-2.1-0.1-3.4-0.3-3.9c-0.2-0.5-0.7-1-1.3-1.4c-0.7-0.4-1.6-0.6-2.7-0.6H298v-1.1h21.1v1.1h-1.3c-1.2,0-2.1,0.2-2.8,0.6
			c-0.5,0.3-0.9,0.8-1.2,1.4c-0.2,0.5-0.3,1.7-0.3,3.8v26.6c0,2.1,0.1,3.4,0.3,3.9c0.2,0.5,0.7,1,1.3,1.4c0.7,0.4,1.6,0.6,2.7,0.6
			H319.1z"/>
		<path class="st1" d="M334,173.4v3.6c1.4-1.5,2.8-2.7,4.1-3.4c1.3-0.7,2.7-1.1,4.2-1.1c1.8,0,3.3,0.5,4.5,1.5c1.2,1,2,2.2,2.4,3.7
			c0.3,1.1,0.5,3.3,0.5,6.5v10.8c0,2.1,0.2,3.5,0.6,4c0.4,0.5,1.2,0.9,2.4,1v1.1h-14.1v-1.1c1.1-0.1,1.8-0.6,2.3-1.3
			c0.3-0.5,0.5-1.7,0.5-3.7v-12.4c0-2.3-0.1-3.7-0.3-4.3s-0.5-1.1-0.9-1.4s-0.9-0.5-1.4-0.5c-1.7,0-3.3,1.2-4.8,3.7v14.9
			c0,2.1,0.2,3.4,0.6,4c0.4,0.6,1.1,0.9,2.2,1v1.1h-14.1v-1.1c1.2-0.1,2-0.5,2.5-1.1c0.3-0.4,0.5-1.7,0.5-3.9v-15.7
			c0-2.1-0.2-3.4-0.6-3.9c-0.4-0.5-1.2-0.9-2.4-1v-1.1H334z"/>
		<path class="st1" d="M367.6,163.2v10.2h6.6v2.9h-6.6v17.2c0,1.6,0.1,2.6,0.2,3.1c0.1,0.5,0.4,0.8,0.8,1.1c0.4,0.3,0.7,0.4,1,0.4
			c1.3,0,2.5-1,3.7-2.9l0.9,0.7c-1.6,3.8-4.2,5.7-7.8,5.7c-1.8,0-3.3-0.5-4.5-1.5c-1.2-1-2-2.1-2.3-3.3c-0.2-0.7-0.3-2.5-0.3-5.5
			v-15h-3.6v-1c2.5-1.8,4.6-3.6,6.4-5.6c1.8-1.9,3.3-4.1,4.6-6.5H367.6z"/>
		<path class="st1" d="M400.4,186.3h-15.3c0.2,3.7,1.2,6.6,2.9,8.8c1.4,1.6,3,2.5,4.9,2.5c1.2,0,2.3-0.3,3.2-1c1-0.7,2-1.9,3.1-3.6
			l1,0.7c-1.5,3.1-3.2,5.3-5,6.5c-1.8,1.3-3.9,1.9-6.3,1.9c-4.1,0-7.3-1.6-9.4-4.8c-1.7-2.6-2.6-5.7-2.6-9.5c0-4.6,1.3-8.3,3.8-11.1
			c2.5-2.8,5.5-4.1,8.8-4.1c2.8,0,5.3,1.2,7.3,3.5C399.2,178.3,400.3,181.8,400.4,186.3z M393.1,184.3c0-3.2-0.2-5.4-0.5-6.6
			s-0.9-2.1-1.6-2.7c-0.4-0.4-1-0.5-1.7-0.5c-1,0-1.9,0.5-2.5,1.5c-1.2,1.8-1.8,4.2-1.8,7.3v1H393.1z"/>
		<path class="st1" d="M415.5,173.4v6.3c1.8-2.9,3.5-4.8,4.9-5.7c1.4-0.9,2.7-1.4,4-1.4c1.1,0,2,0.3,2.7,1c0.7,0.7,1,1.7,1,2.9
			c0,1.3-0.3,2.4-1,3.1c-0.6,0.7-1.4,1.1-2.3,1.1c-1.1,0-2-0.3-2.7-1c-0.8-0.7-1.2-1.1-1.4-1.1c-0.2-0.1-0.4-0.2-0.7-0.2
			c-0.6,0-1.1,0.2-1.6,0.7c-0.8,0.7-1.4,1.6-1.8,2.9c-0.6,1.9-1,4.1-1,6.4v6.4l0,1.7c0,1.1,0.1,1.9,0.2,2.2c0.2,0.5,0.6,0.9,1.1,1.2
			c0.5,0.2,1.3,0.4,2.4,0.5v1.1h-15v-1.1c1.2-0.1,2-0.4,2.5-1c0.4-0.6,0.6-2.1,0.6-4.5v-15.4c0-1.6-0.1-2.6-0.2-3
			c-0.2-0.6-0.5-1-0.9-1.2c-0.4-0.3-1-0.4-2-0.5v-1.1H415.5z"/>
		<path class="st1" d="M442.4,173.4v3.6c1.4-1.5,2.8-2.7,4.1-3.4c1.3-0.7,2.7-1.1,4.2-1.1c1.8,0,3.3,0.5,4.5,1.5
			c1.2,1,2,2.2,2.4,3.7c0.3,1.1,0.5,3.3,0.5,6.5v10.8c0,2.1,0.2,3.5,0.6,4c0.4,0.5,1.2,0.9,2.4,1v1.1H447v-1.1
			c1.1-0.1,1.8-0.6,2.3-1.3c0.3-0.5,0.5-1.7,0.5-3.7v-12.4c0-2.3-0.1-3.7-0.3-4.3s-0.5-1.1-0.9-1.4s-0.9-0.5-1.4-0.5
			c-1.7,0-3.3,1.2-4.8,3.7v14.9c0,2.1,0.2,3.4,0.6,4c0.4,0.6,1.1,0.9,2.2,1v1.1H431v-1.1c1.2-0.1,2-0.5,2.5-1.1
			c0.3-0.4,0.5-1.7,0.5-3.9v-15.7c0-2.1-0.2-3.4-0.6-3.9c-0.4-0.5-1.2-0.9-2.4-1v-1.1H442.4z"/>
		<path class="st1" d="M480.3,197.1c-3.4,3-6.4,4.5-9.1,4.5c-1.6,0-2.9-0.5-4-1.6s-1.6-2.3-1.6-3.9c0-2.1,0.9-4,2.7-5.7
			c1.8-1.7,5.8-4,11.9-6.8v-2.8c0-2.1-0.1-3.4-0.3-4c-0.2-0.5-0.7-1-1.3-1.4c-0.6-0.4-1.4-0.6-2.1-0.6c-1.3,0-2.4,0.3-3.2,0.9
			c-0.5,0.4-0.8,0.8-0.8,1.3c0,0.4,0.3,0.9,0.8,1.5c0.8,0.9,1.1,1.7,1.1,2.5c0,1-0.4,1.8-1.1,2.5c-0.7,0.7-1.7,1-2.8,1
			c-1.3,0-2.3-0.4-3.1-1.1c-0.8-0.8-1.3-1.6-1.3-2.7c0-1.4,0.6-2.8,1.7-4.1c1.1-1.3,2.7-2.3,4.7-3s4.1-1,6.3-1
			c2.6,0,4.7,0.6,6.3,1.7c1.5,1.1,2.5,2.3,3,3.6c0.3,0.8,0.4,2.8,0.4,5.7v10.8c0,1.3,0,2.1,0.1,2.4s0.2,0.6,0.4,0.7
			c0.2,0.2,0.4,0.2,0.7,0.2c0.5,0,1-0.4,1.6-1.1l0.9,0.7c-1,1.5-2,2.5-3.1,3.2c-1.1,0.7-2.3,1-3.6,1c-1.6,0-2.8-0.4-3.7-1.1
			C481,199.7,480.5,198.6,480.3,197.1z M480.3,194.9v-9.3c-2.4,1.4-4.2,2.9-5.4,4.5c-0.8,1.1-1.2,2.2-1.2,3.2c0,0.9,0.3,1.7,1,2.4
			c0.5,0.5,1.2,0.8,2.1,0.8C477.8,196.6,479,196,480.3,194.9z"/>
		<path class="st1" d="M506.5,163.2v10.2h6.6v2.9h-6.6v17.2c0,1.6,0.1,2.6,0.2,3.1c0.1,0.5,0.4,0.8,0.8,1.1c0.4,0.3,0.7,0.4,1,0.4
			c1.3,0,2.5-1,3.7-2.9l0.9,0.7c-1.6,3.8-4.2,5.7-7.8,5.7c-1.8,0-3.3-0.5-4.5-1.5c-1.2-1-2-2.1-2.3-3.3c-0.2-0.7-0.3-2.5-0.3-5.5
			v-15h-3.6v-1c2.5-1.8,4.6-3.6,6.4-5.6c1.8-1.9,3.3-4.1,4.6-6.5H506.5z"/>
		<path class="st1" d="M526.6,173.4v22.1c0,2,0.2,3.2,0.7,3.8c0.5,0.5,1.3,0.9,2.7,0.9v1.1h-15v-1.1c1.2,0,2.1-0.4,2.7-1.1
			c0.4-0.5,0.6-1.7,0.6-3.6v-16.3c0-2-0.2-3.2-0.7-3.8s-1.3-0.9-2.7-0.9v-1.1H526.6z M522.5,159.9c1.3,0,2.4,0.5,3.3,1.4
			c0.9,0.9,1.3,2,1.3,3.3s-0.5,2.4-1.4,3.2c-0.9,0.9-2,1.3-3.3,1.3c-1.3,0-2.4-0.4-3.2-1.3s-1.3-2-1.3-3.2s0.4-2.4,1.3-3.3
			C520.1,160.3,521.2,159.9,522.5,159.9z"/>
		<path class="st1" d="M545.8,172.5c2.4,0,4.7,0.6,6.8,1.9c2.1,1.3,3.7,3,4.8,5.3s1.6,4.8,1.6,7.6c0,4-1,7.3-3,9.9
			c-2.4,3.2-5.8,4.8-10,4.8c-4.2,0-7.4-1.5-9.7-4.4c-2.3-2.9-3.4-6.3-3.4-10.2c0-4,1.2-7.5,3.5-10.4
			C538.6,174,541.8,172.5,545.8,172.5z M546,174.6c-1,0-1.9,0.4-2.6,1.1c-0.7,0.8-1.2,2.3-1.4,4.5c-0.2,2.3-0.3,5.4-0.3,9.4
			c0,2.1,0.1,4.1,0.4,6c0.2,1.4,0.7,2.5,1.4,3.2c0.7,0.7,1.5,1.1,2.4,1.1c0.9,0,1.6-0.2,2.2-0.7c0.8-0.7,1.3-1.6,1.5-2.8
			c0.4-1.9,0.6-5.7,0.6-11.4c0-3.4-0.2-5.7-0.6-7c-0.4-1.3-0.9-2.2-1.7-2.8C547.5,174.9,546.8,174.6,546,174.6z"/>
		<path class="st1" d="M574.6,173.4v3.6c1.4-1.5,2.8-2.7,4.1-3.4c1.3-0.7,2.7-1.1,4.2-1.1c1.8,0,3.3,0.5,4.5,1.5
			c1.2,1,2,2.2,2.4,3.7c0.3,1.1,0.5,3.3,0.5,6.5v10.8c0,2.1,0.2,3.5,0.6,4c0.4,0.5,1.2,0.9,2.4,1v1.1h-14.1v-1.1
			c1.1-0.1,1.8-0.6,2.3-1.3c0.3-0.5,0.5-1.7,0.5-3.7v-12.4c0-2.3-0.1-3.7-0.3-4.3s-0.5-1.1-0.9-1.4s-0.9-0.5-1.4-0.5
			c-1.7,0-3.3,1.2-4.8,3.7v14.9c0,2.1,0.2,3.4,0.6,4c0.4,0.6,1.1,0.9,2.2,1v1.1h-14.1v-1.1c1.2-0.1,2-0.5,2.5-1.1
			c0.3-0.4,0.5-1.7,0.5-3.9v-15.7c0-2.1-0.2-3.4-0.6-3.9c-0.4-0.5-1.2-0.9-2.4-1v-1.1H574.6z"/>
		<path class="st1" d="M612.5,197.1c-3.4,3-6.4,4.5-9.1,4.5c-1.6,0-2.9-0.5-4-1.6s-1.6-2.3-1.6-3.9c0-2.1,0.9-4,2.7-5.7
			c1.8-1.7,5.8-4,11.9-6.8v-2.8c0-2.1-0.1-3.4-0.3-4c-0.2-0.5-0.7-1-1.3-1.4c-0.6-0.4-1.4-0.6-2.1-0.6c-1.3,0-2.4,0.3-3.2,0.9
			c-0.5,0.4-0.8,0.8-0.8,1.3c0,0.4,0.3,0.9,0.8,1.5c0.8,0.9,1.1,1.7,1.1,2.5c0,1-0.4,1.8-1.1,2.5c-0.7,0.7-1.7,1-2.8,1
			c-1.3,0-2.3-0.4-3.1-1.1c-0.8-0.8-1.3-1.6-1.3-2.7c0-1.4,0.6-2.8,1.7-4.1c1.1-1.3,2.7-2.3,4.7-3s4.1-1,6.3-1
			c2.6,0,4.7,0.6,6.3,1.7c1.5,1.1,2.5,2.3,3,3.6c0.3,0.8,0.4,2.8,0.4,5.7v10.8c0,1.3,0,2.1,0.1,2.4s0.2,0.6,0.4,0.7
			c0.2,0.2,0.4,0.2,0.7,0.2c0.5,0,1-0.4,1.6-1.1l0.9,0.7c-1,1.5-2,2.5-3.1,3.2c-1.1,0.7-2.3,1-3.6,1c-1.6,0-2.8-0.4-3.7-1.1
			C613.3,199.7,612.7,198.6,612.5,197.1z M612.5,194.9v-9.3c-2.4,1.4-4.2,2.9-5.4,4.5c-0.8,1.1-1.2,2.2-1.2,3.2c0,0.9,0.3,1.7,1,2.4
			c0.5,0.5,1.2,0.8,2.1,0.8C610,196.6,611.2,196,612.5,194.9z"/>
		<path class="st1" d="M638.5,160.8v34.6c0,2,0.2,3.2,0.7,3.8c0.5,0.5,1.4,0.9,2.7,0.9v1.1h-15v-1.1c1.2,0,2.1-0.4,2.7-1.1
			c0.4-0.5,0.6-1.7,0.6-3.6v-28.8c0-1.9-0.2-3.2-0.7-3.7c-0.5-0.5-1.3-0.9-2.7-0.9v-1.1H638.5z"/>
	</g>
	<g>
		<path class="st1" d="M340.2,231.5v1.1c-1.3,0.2-2.4,0.6-3.1,1.2c-1,0.8-2.6,3.1-4.7,6.8l-8.8,14.6v9.8c0,2.1,0.1,3.4,0.3,3.9
			c0.2,0.5,0.7,1,1.3,1.3s1.5,0.6,2.6,0.6h2.3v1.1h-22.7v-1.1h2.1c1.2,0,2.1-0.2,2.8-0.6c0.5-0.3,0.9-0.8,1.2-1.4
			c0.2-0.5,0.3-1.7,0.3-3.8v-8.1l-9.5-17.3c-1.9-3.4-3.2-5.4-4-6c-0.8-0.6-1.8-0.9-3.1-0.9v-1.1h19.4v1.1h-0.9c-1.2,0-2,0.2-2.5,0.5
			c-0.5,0.3-0.7,0.7-0.7,1.1c0,0.7,0.8,2.5,2.4,5.4l7.3,13.4l7.3-12.2c1.8-3,2.7-5,2.7-5.9c0-0.5-0.3-1-0.8-1.3
			c-0.7-0.5-1.9-0.8-3.7-0.9v-1.1H340.2z"/>
		<path class="st1" d="M351.6,267.8c-3.4,3-6.4,4.5-9.1,4.5c-1.6,0-2.9-0.5-4-1.6s-1.6-2.3-1.6-3.9c0-2.1,0.9-4,2.7-5.7
			c1.8-1.7,5.8-4,11.9-6.8v-2.8c0-2.1-0.1-3.4-0.3-4c-0.2-0.5-0.7-1-1.3-1.4c-0.6-0.4-1.4-0.6-2.1-0.6c-1.3,0-2.4,0.3-3.2,0.9
			c-0.5,0.4-0.8,0.8-0.8,1.3c0,0.4,0.3,0.9,0.8,1.5c0.8,0.9,1.1,1.7,1.1,2.5c0,1-0.4,1.8-1.1,2.5c-0.7,0.7-1.7,1-2.8,1
			c-1.3,0-2.3-0.4-3.1-1.1c-0.8-0.8-1.3-1.6-1.3-2.7c0-1.4,0.6-2.8,1.7-4.1c1.1-1.3,2.7-2.3,4.7-3s4.1-1,6.3-1
			c2.6,0,4.7,0.6,6.3,1.7c1.5,1.1,2.5,2.3,3,3.6c0.3,0.8,0.4,2.8,0.4,5.7v10.8c0,1.3,0,2.1,0.1,2.4s0.2,0.6,0.4,0.7
			c0.2,0.2,0.4,0.2,0.7,0.2c0.5,0,1-0.4,1.6-1.1l0.9,0.7c-1,1.5-2,2.5-3.1,3.2c-1.1,0.7-2.3,1-3.6,1c-1.6,0-2.8-0.4-3.7-1.1
			S351.8,269.3,351.6,267.8z M351.6,265.6v-9.3c-2.4,1.4-4.2,2.9-5.4,4.5c-0.8,1.1-1.2,2.2-1.2,3.2c0,0.9,0.3,1.7,1,2.4
			c0.5,0.5,1.2,0.8,2.1,0.8C349.1,267.3,350.3,266.8,351.6,265.6z"/>
		<path class="st1" d="M389.4,264.8l0.9,0.7c-1.3,2.5-2.9,4.3-4.9,5.5c-2,1.2-4,1.8-6.2,1.8c-3.7,0-6.7-1.4-8.9-4.2
			c-2.2-2.8-3.3-6.2-3.3-10.1c0-3.8,1-7.1,3-10c2.4-3.5,5.8-5.2,10.1-5.2c2.9,0,5.2,0.7,6.9,2.2c1.7,1.4,2.5,3.1,2.5,4.9
			c0,1.1-0.3,2-1,2.7c-0.7,0.7-1.6,1-2.7,1c-1.2,0-2.1-0.4-2.9-1.2c-0.8-0.8-1.2-2.2-1.4-4.1c-0.1-1.3-0.4-2.1-0.9-2.6
			c-0.5-0.5-1-0.7-1.6-0.7c-1,0-1.8,0.5-2.4,1.5c-1,1.5-1.5,3.9-1.5,7c0,2.6,0.4,5.1,1.3,7.5c0.8,2.4,2,4.2,3.4,5.3
			c1.1,0.9,2.4,1.3,3.9,1.3c1,0,1.9-0.2,2.8-0.7S388.2,266,389.4,264.8z"/>
		<path class="st1" d="M405.2,231.5v16.1c1.5-1.6,2.9-2.7,4.2-3.4c1.3-0.7,2.6-1,4-1c1.7,0,3.2,0.5,4.5,1.5c1.2,1,2.1,2.2,2.5,3.5
			c0.4,1.3,0.6,3.6,0.6,6.8v10.9c0,2.1,0.2,3.5,0.6,4c0.4,0.5,1.2,0.9,2.4,1v1.1h-14.1v-1.1c1-0.1,1.7-0.5,2.2-1.2
			c0.4-0.5,0.5-1.8,0.5-3.8v-12.4c0-2.3-0.1-3.7-0.3-4.3s-0.5-1-0.9-1.4c-0.4-0.3-0.9-0.5-1.4-0.5c-0.8,0-1.6,0.3-2.3,0.8
			c-0.8,0.5-1.6,1.5-2.4,2.9v14.9c0,2,0.1,3.2,0.4,3.7c0.4,0.7,1.2,1.1,2.3,1.3v1.1h-14.1v-1.1c1.2-0.1,2-0.5,2.5-1.1
			c0.3-0.4,0.5-1.7,0.5-3.8v-28.3c0-2.1-0.2-3.4-0.6-3.9c-0.4-0.5-1.2-0.9-2.4-1v-1.1H405.2z"/>
		<path class="st1" d="M438.8,233.9v10.2h6.6v2.9h-6.6v17.2c0,1.6,0.1,2.6,0.2,3.1c0.1,0.5,0.4,0.8,0.8,1.1c0.4,0.3,0.7,0.4,1,0.4
			c1.3,0,2.5-1,3.7-2.9l0.9,0.7c-1.6,3.8-4.2,5.7-7.8,5.7c-1.8,0-3.3-0.5-4.5-1.5c-1.2-1-2-2.1-2.3-3.3c-0.2-0.7-0.3-2.5-0.3-5.5
			v-15h-3.6v-1c2.5-1.8,4.6-3.6,6.4-5.6c1.8-1.9,3.3-4.1,4.6-6.5H438.8z"/>
	</g>
	<g>
		<path class="st1" d="M334.2,300.4v10.9h-1.1c-0.6-2.5-1.3-4.3-2.1-5.4s-1.8-2-3.2-2.6c-0.8-0.4-2.1-0.5-4-0.5h-3v31.2
			c0,2.1,0.1,3.4,0.3,3.9c0.2,0.5,0.7,1,1.3,1.4c0.7,0.4,1.6,0.6,2.7,0.6h1.3v1.1h-21.2v-1.1h1.3c1.2,0,2.1-0.2,2.8-0.6
			c0.5-0.3,0.9-0.8,1.2-1.4c0.2-0.5,0.3-1.7,0.3-3.8v-31.2h-2.9c-2.7,0-4.7,0.6-5.9,1.7c-1.7,1.6-2.8,3.9-3.3,6.9h-1.1v-10.9H334.2z
			"/>
		<path class="st1" d="M345.5,312.9v6.3c1.8-2.9,3.5-4.8,4.9-5.7c1.4-0.9,2.7-1.4,4-1.4c1.1,0,2,0.3,2.7,1c0.7,0.7,1,1.7,1,2.9
			c0,1.3-0.3,2.4-1,3.1c-0.6,0.7-1.4,1.1-2.3,1.1c-1.1,0-2-0.3-2.7-1c-0.8-0.7-1.2-1.1-1.4-1.1c-0.2-0.1-0.4-0.2-0.7-0.2
			c-0.6,0-1.1,0.2-1.6,0.7c-0.8,0.7-1.4,1.6-1.8,2.9c-0.6,1.9-1,4.1-1,6.4v6.4l0,1.7c0,1.1,0.1,1.9,0.2,2.2c0.2,0.5,0.6,0.9,1.1,1.2
			c0.5,0.2,1.3,0.4,2.4,0.5v1.1h-15v-1.1c1.2-0.1,2-0.4,2.5-1c0.4-0.6,0.6-2.1,0.6-4.5v-15.4c0-1.6-0.1-2.6-0.2-3
			c-0.2-0.6-0.5-1-0.9-1.2c-0.4-0.3-1-0.4-2-0.5v-1.1H345.5z"/>
		<path class="st1" d="M376.4,336.7c-3.4,3-6.4,4.5-9.1,4.5c-1.6,0-2.9-0.5-4-1.6s-1.6-2.3-1.6-3.9c0-2.1,0.9-4,2.7-5.7
			c1.8-1.7,5.8-4,11.9-6.8v-2.8c0-2.1-0.1-3.4-0.3-4c-0.2-0.5-0.7-1-1.3-1.4s-1.4-0.6-2.1-0.6c-1.3,0-2.4,0.3-3.2,0.9
			c-0.5,0.4-0.8,0.8-0.8,1.3c0,0.4,0.3,0.9,0.8,1.5c0.8,0.9,1.1,1.7,1.1,2.5c0,1-0.4,1.8-1.1,2.5c-0.7,0.7-1.7,1-2.8,1
			c-1.3,0-2.3-0.4-3.1-1.1c-0.8-0.8-1.3-1.6-1.3-2.7c0-1.4,0.6-2.8,1.7-4.1s2.7-2.3,4.7-3s4.1-1,6.3-1c2.6,0,4.7,0.6,6.3,1.7
			s2.5,2.3,3,3.6c0.3,0.8,0.4,2.8,0.4,5.8V334c0,1.3,0,2.1,0.1,2.4c0.1,0.3,0.2,0.6,0.4,0.7c0.2,0.2,0.4,0.2,0.7,0.2
			c0.5,0,1-0.4,1.6-1.1l0.9,0.7c-1,1.5-2,2.5-3.1,3.2s-2.3,1-3.6,1c-1.6,0-2.8-0.4-3.7-1.1C377.2,339.3,376.6,338.2,376.4,336.7z
			 M376.4,334.5v-9.3c-2.4,1.4-4.2,2.9-5.4,4.5c-0.8,1.1-1.2,2.2-1.2,3.2c0,0.9,0.3,1.7,1,2.4c0.5,0.5,1.2,0.8,2.1,0.8
			C374,336.2,375.1,335.6,376.4,334.5z"/>
		<path class="st1" d="M402.4,312.9V335c0,2,0.2,3.2,0.7,3.8c0.5,0.5,1.3,0.9,2.7,0.9v1.1h-15v-1.1c1.2,0,2.1-0.4,2.7-1.1
			c0.4-0.5,0.6-1.7,0.6-3.6v-16.3c0-2-0.2-3.2-0.7-3.8s-1.3-0.9-2.7-0.9v-1.1H402.4z M398.2,299.4c1.3,0,2.4,0.5,3.3,1.4
			c0.9,0.9,1.3,2,1.3,3.3c0,1.3-0.5,2.4-1.4,3.2c-0.9,0.9-2,1.3-3.3,1.3c-1.3,0-2.4-0.4-3.2-1.3s-1.3-2-1.3-3.2
			c0-1.3,0.4-2.4,1.3-3.3C395.9,299.9,397,299.4,398.2,299.4z"/>
		<path class="st1" d="M419.9,312.9v3.6c1.4-1.5,2.8-2.7,4.1-3.4s2.7-1.1,4.2-1.1c1.8,0,3.3,0.5,4.5,1.5s2,2.2,2.4,3.7
			c0.3,1.1,0.5,3.3,0.5,6.5v10.8c0,2.1,0.2,3.5,0.6,4c0.4,0.5,1.2,0.9,2.4,1v1.1h-14.1v-1.1c1.1-0.1,1.8-0.6,2.3-1.3
			c0.3-0.5,0.5-1.7,0.5-3.7v-12.4c0-2.3-0.1-3.7-0.3-4.3s-0.5-1.1-0.9-1.4c-0.4-0.3-0.9-0.5-1.4-0.5c-1.7,0-3.3,1.2-4.8,3.7v14.9
			c0,2.1,0.2,3.4,0.6,4c0.4,0.6,1.1,0.9,2.2,1v1.1h-14.1v-1.1c1.2-0.1,2-0.5,2.5-1.1c0.3-0.4,0.5-1.7,0.5-3.9V319
			c0-2.1-0.2-3.4-0.6-3.9c-0.4-0.5-1.2-0.9-2.4-1v-1.1H419.9z"/>
		<path class="st1" d="M453.3,312.9V335c0,2,0.2,3.2,0.7,3.8c0.5,0.5,1.3,0.9,2.7,0.9v1.1h-15v-1.1c1.2,0,2.1-0.4,2.7-1.1
			c0.4-0.5,0.6-1.7,0.6-3.6v-16.3c0-2-0.2-3.2-0.7-3.8s-1.3-0.9-2.7-0.9v-1.1H453.3z M449.1,299.4c1.3,0,2.4,0.5,3.3,1.4
			c0.9,0.9,1.3,2,1.3,3.3c0,1.3-0.5,2.4-1.4,3.2c-0.9,0.9-2,1.3-3.3,1.3c-1.3,0-2.4-0.4-3.2-1.3s-1.3-2-1.3-3.2
			c0-1.3,0.4-2.4,1.3-3.3C446.8,299.9,447.9,299.4,449.1,299.4z"/>
		<path class="st1" d="M470.8,312.9v3.6c1.4-1.5,2.8-2.7,4.1-3.4s2.7-1.1,4.2-1.1c1.8,0,3.3,0.5,4.5,1.5s2,2.2,2.4,3.7
			c0.3,1.1,0.5,3.3,0.5,6.5v10.8c0,2.1,0.2,3.5,0.6,4c0.4,0.5,1.2,0.9,2.4,1v1.1h-14.1v-1.1c1.1-0.1,1.8-0.6,2.3-1.3
			c0.3-0.5,0.5-1.7,0.5-3.7v-12.4c0-2.3-0.1-3.7-0.3-4.3s-0.5-1.1-0.9-1.4c-0.4-0.3-0.9-0.5-1.4-0.5c-1.7,0-3.3,1.2-4.8,3.7v14.9
			c0,2.1,0.2,3.4,0.6,4c0.4,0.6,1.1,0.9,2.2,1v1.1h-14.1v-1.1c1.2-0.1,2-0.5,2.5-1.1c0.3-0.4,0.5-1.7,0.5-3.9V319
			c0-2.1-0.2-3.4-0.6-3.9c-0.4-0.5-1.2-0.9-2.4-1v-1.1H470.8z"/>
		<path class="st1" d="M511.2,313.2h9.4v3.3h-5.3c1,1,1.6,1.9,2,2.7c0.5,1.1,0.7,2.2,0.7,3.4c0,2-0.6,3.7-1.7,5.2
			c-1.1,1.5-2.6,2.6-4.5,3.4s-3.6,1.2-5,1.2c-0.1,0-1.3,0-3.6-0.1c-0.9,0-1.6,0.3-2.2,0.9s-0.9,1.3-0.9,2.1c0,0.7,0.3,1.3,0.8,1.8
			c0.5,0.5,1.4,0.7,2.7,0.7l5.2-0.1c4.2,0,7,0.5,8.6,1.4c2.2,1.3,3.4,3.2,3.4,5.9c0,1.7-0.5,3.2-1.5,4.6c-1,1.4-2.4,2.4-4.1,3.1
			c-2.6,1-5.5,1.5-8.8,1.5c-2.5,0-4.8-0.2-6.9-0.7c-2.1-0.5-3.5-1.2-4.4-2c-0.9-0.9-1.3-1.8-1.3-2.7c0-0.9,0.3-1.7,1-2.5
			c0.7-0.7,2-1.3,3.8-1.8c-2.6-1.3-3.9-3-3.9-5.3c0-1.4,0.5-2.7,1.6-4s2.7-2.4,5-3.4c-2.7-1-4.6-2.3-5.8-3.8s-1.8-3.4-1.8-5.5
			c0-2.7,1.1-5.1,3.3-7.1c2.2-2,5.1-3,8.6-3C507.3,312.1,509.2,312.5,511.2,313.2z M504.3,344.9c-2,0-3.4,0.2-4,0.5
			c-1.1,0.6-1.7,1.4-1.7,2.5c0,1,0.6,1.9,1.8,2.8s3.4,1.2,6.6,1.2c2.8,0,4.9-0.4,6.5-1.1c1.6-0.7,2.4-1.8,2.4-3.1
			c0-0.5-0.1-0.9-0.4-1.3c-0.5-0.6-1.3-1-2.4-1.2C511.8,345,509,344.9,504.3,344.9z M506,313.9c-1.2,0-2.1,0.6-2.9,1.7
			c-0.8,1.2-1.2,3.6-1.2,7.2c0,3,0.4,5,1.2,6.1c0.8,1.1,1.7,1.7,2.8,1.7c1.2,0,2.2-0.5,3-1.6s1.2-3.2,1.2-6.4c0-3.6-0.4-6-1.3-7.3
			C508.1,314.4,507.2,313.9,506,313.9z"/>
	</g>
	<g>
		<defs>
			<polyline id="SVGID_9_" points="75,223 109,223 109,239 75,239 75,223 			"/>
		</defs>
		<clipPath id="SVGID_10_">
			<use xlink:href="#SVGID_9_"  style="overflow:visible;"/>
		</clipPath>
		<g class="st10">
			<defs>
				<path id="SVGID_11_" d="M106.1,225.8c-9.7,2.7-19,6-28,9.5c-0.6,0.1-0.8,0.5-0.6,0.9c0.1,0.3,0.5,0.4,0.9,0.4
					c0.1,0,0.3,0,0.4-0.1c9.3-1.1,18.2-3.3,27.2-5.2l0-0.8V225.8"/>
			</defs>
			<clipPath id="SVGID_12_">
				<use xlink:href="#SVGID_11_"  style="overflow:visible;"/>
			</clipPath>
			<g style="clip-path:url(#SVGID_12_);">
				
					<image style="overflow:visible;" width="123" height="47" xlink:href="8DEEC28111AD12E5.jpg"  transform="matrix(0.2394 0 0 0.2388 76.9155 225.6269)">
				</image>
			</g>
		</g>
		<g class="st10">
			<defs>
				<path id="SVGID_13_" d="M106.3,225.7c-0.1,0-0.1,0-0.2,0.1v4.8L106.3,225.7"/>
			</defs>
			<clipPath id="SVGID_14_">
				<use xlink:href="#SVGID_13_"  style="overflow:visible;"/>
			</clipPath>
			<g style="clip-path:url(#SVGID_14_);">
				
					<image style="overflow:visible;" width="3" height="23" xlink:href="8DEEC28111AD12E6.jpg"  transform="matrix(0.2394 0 0 0.2388 105.8873 225.3881)">
				</image>
			</g>
		</g>
	</g>
	<g>
		<defs>
			<polyline id="SVGID_15_" points="288,210 662,210 662,238 288,238 288,210 			"/>
		</defs>
		<clipPath id="SVGID_16_">
			<use xlink:href="#SVGID_15_"  style="overflow:visible;"/>
		</clipPath>
		<g class="st11">
			<defs>
				<path id="SVGID_17_" d="M384.5,212.8c-14,0-28.4,2-42.3,2.9c-17.2,1.1-33.3,4.3-49.9,6.7v9.5c1.7-0.1,3.4-0.2,5-0.4v-0.1h0.8
					c15.5-1.5,30.5-5.5,46.6-6.5c14.5-1,28.6-2,42.9-2c2.9,0,5.8,0,8.7,0.1c2.4,0,4.6,0.5,7,1c7.6,1.8,13.7,5.2,21,7.4h21v3.6
					c4.6,0.4,9.3,0.5,13.9,0.5c13.2,0,26.4-1.2,39.6-1.9c44.7-2.4,88.4-6.6,132.7-6.6c7.5,0,15,0.1,22.5,0.4c0.3,0,0.6,0,0.8,0
					c2.3,0,4.4-1.1,4.7-2.6c0.4-1.7-1.4-3.4-4-3.8c-10.8-3.2-22.2-4-33.8-4c-8.8,0-17.6,0.5-26.3,0.8c-47,1.9-92.7,6.6-139.7,7.9
					c-0.6,0-1.3,0-1.9,0c-14.2,0-27-4.1-39.5-8.6C404.9,213.9,394.8,212.8,384.5,212.8"/>
			</defs>
			<clipPath id="SVGID_18_">
				<use xlink:href="#SVGID_17_"  style="overflow:visible;"/>
			</clipPath>
			<g transform="matrix(1 0 0 1 0 0)" style="clip-path:url(#SVGID_18_);">
				
					<image style="overflow:visible;" width="1534" height="97" xlink:href="8DEEC28111AD12E4.jpg"  transform="matrix(0.2401 0 0 0.2393 292.0809 212.6325)">
				</image>
			</g>
		</g>
		<g class="st11">
			<defs>
				<path id="SVGID_19_" d="M292.3,222.4c-0.1,0-0.3,0-0.4,0.1l-1.1,9.5c0.5,0,1,0,1.5-0.1V222.4"/>
			</defs>
			<clipPath id="SVGID_20_">
				<use xlink:href="#SVGID_19_"  style="overflow:visible;"/>
			</clipPath>
			<g transform="matrix(1 0 0 1 0 0)" style="clip-path:url(#SVGID_20_);">
				
					<image style="overflow:visible;" width="8" height="42" xlink:href="8DEEC28111AD12E3.jpg"  transform="matrix(0.2401 0 0 0.2393 290.6406 222.2051)">
				</image>
			</g>
		</g>
		<g class="st11">
			<defs>
				<path id="SVGID_21_" d="M298.1,231.5h-0.8v0.1C297.6,231.5,297.9,231.5,298.1,231.5 M445.3,231.5h-21c0.9,0.3,1.9,0.5,2.8,0.8
					c6,1.4,12.1,2.3,18.2,2.8V231.5"/>
			</defs>
			<clipPath id="SVGID_22_">
				<use xlink:href="#SVGID_21_"  style="overflow:visible;"/>
			</clipPath>
			<g class="st12">
				<defs>
					<rect id="SVGID_23_" x="297.3" y="231.5" width="148" height="3.6"/>
				</defs>
				<clipPath id="SVGID_24_">
					<use xlink:href="#SVGID_23_"  style="overflow:visible;"/>
				</clipPath>
				<g transform="matrix(1 0 0 1 0 0)" style="clip-path:url(#SVGID_24_);">
					
						<image style="overflow:visible;" width="618" height="17" xlink:href="8DEEC28111AD12ED.jpg"  transform="matrix(0.2401 0 0 0.2393 297.1219 231.2991)">
					</image>
				</g>
			</g>
			<g class="st12">
				<defs>
					<path id="SVGID_25_" d="M437.7,233.9c-1.3,2.4-2.8,4.6-4.6,6.5c-1.8,1.9-3.9,3.8-6.4,5.6v1h3.6v15c0,3,0.1,4.8,0.3,5.5
						c0.3,1.2,1.1,2.3,2.3,3.3c1.2,1,2.7,1.5,4.5,1.5c3.6,0,6.2-1.9,7.8-5.7l-0.9-0.7c-1.2,2-2.4,2.9-3.7,2.9c-0.3,0-0.7-0.1-1-0.4
						c-0.4-0.3-0.6-0.7-0.8-1.1c-0.1-0.5-0.2-1.5-0.2-3.1V247h6.6v-2.9h-6.6v-10.2H437.7z M393.8,231.5v1.1c1.2,0.2,2,0.5,2.4,1
						c0.4,0.5,0.6,1.8,0.6,3.9v28.3c0,2.1-0.2,3.4-0.5,3.8c-0.5,0.6-1.3,1-2.5,1.1v1.1h14.1v-1.1c-1.2-0.2-1.9-0.6-2.3-1.3
						c-0.3-0.5-0.4-1.7-0.4-3.7V251c0.9-1.4,1.7-2.3,2.4-2.9c0.8-0.5,1.5-0.8,2.3-0.8c0.5,0,1,0.2,1.4,0.5c0.4,0.3,0.7,0.8,0.9,1.4
						s0.3,2,0.3,4.3v12.4c0,2-0.2,3.3-0.5,3.8c-0.5,0.7-1.2,1.1-2.2,1.2v1.1h14.1v-1.1c-1.2-0.1-2-0.5-2.4-1c-0.4-0.5-0.6-1.9-0.6-4
						V255c0-3.2-0.2-5.4-0.6-6.8c-0.4-1.3-1.2-2.5-2.5-3.5c-1.2-1-2.7-1.5-4.5-1.5c-1.4,0-2.7,0.3-4,1c-1.3,0.7-2.7,1.8-4.2,3.4
						v-16.1H393.8z M386.3,267.3c-0.9,0.5-1.8,0.7-2.8,0.7c-1.5,0-2.8-0.4-3.9-1.3c-1.5-1.2-2.6-3-3.4-5.3c-0.8-2.4-1.3-4.9-1.3-7.5
						c0-3.2,0.5-5.5,1.5-7c0.7-1,1.5-1.5,2.4-1.5c0.6,0,1.2,0.2,1.6,0.7c0.5,0.5,0.7,1.4,0.9,2.6c0.2,2,0.7,3.4,1.4,4.1
						c0.8,0.8,1.7,1.2,2.9,1.2c1.1,0,2-0.3,2.7-1c0.7-0.7,1-1.6,1-2.7c0-1.8-0.8-3.4-2.5-4.9c-1.7-1.4-4-2.2-6.9-2.2
						c-4.3,0-7.7,1.7-10.1,5.2c-2,2.9-3,6.2-3,10c0,3.9,1.1,7.3,3.3,10.1c2.2,2.8,5.2,4.2,8.9,4.2c2.2,0,4.3-0.6,6.2-1.8
						c2-1.2,3.6-3,4.9-5.5l-0.9-0.7C388.2,266,387.2,266.9,386.3,267.3z M348.1,267.3c-0.9,0-1.6-0.3-2.1-0.8c-0.7-0.7-1-1.5-1-2.4
						c0-1.1,0.4-2.2,1.2-3.2c1.2-1.6,3-3.1,5.4-4.5v9.3C350.2,266.8,349.1,267.3,348.1,267.3L348.1,267.3z M353.2,271.2
						c0.9,0.7,2.1,1.1,3.7,1.1c1.4,0,2.6-0.3,3.6-1c1.1-0.7,2.1-1.7,3.1-3.2l-0.9-0.7c-0.5,0.7-1.1,1.1-1.6,1.1
						c-0.3,0-0.5-0.1-0.7-0.2c-0.2-0.2-0.3-0.4-0.4-0.7c-0.1-0.3-0.1-1.1-0.1-2.4v-10.8c0-3-0.1-4.9-0.4-5.7c-0.5-1.3-1.5-2.5-3-3.6
						c-1.5-1.1-3.6-1.7-6.3-1.7c-2.2,0-4.3,0.3-6.3,1s-3.6,1.7-4.7,3c-1.1,1.3-1.7,2.7-1.7,4.1c0,1,0.4,1.9,1.3,2.7
						c0.8,0.8,1.9,1.1,3.1,1.1c1.2,0,2.1-0.3,2.8-1c0.7-0.7,1.1-1.5,1.1-2.5c0-0.8-0.4-1.6-1.1-2.5c-0.6-0.6-0.8-1.1-0.8-1.5
						c0-0.5,0.3-0.9,0.8-1.3c0.8-0.6,1.9-0.9,3.2-0.9c0.8,0,1.5,0.2,2.1,0.6c0.6,0.4,1.1,0.9,1.3,1.4c0.2,0.5,0.3,1.9,0.3,4v2.8
						c-6.1,2.8-10.1,5.1-11.9,6.8c-1.8,1.7-2.7,3.6-2.7,5.7c0,1.6,0.5,2.9,1.6,3.9s2.4,1.6,4,1.6c2.7,0,5.7-1.5,9.1-4.5
						C351.7,269.3,352.3,270.5,353.2,271.2z M327.8,231.5v1.1c1.8,0.1,3,0.4,3.7,0.9c0.5,0.4,0.8,0.8,0.8,1.3c0,1-0.9,2.9-2.7,5.9
						l-7.3,12.2l-7.3-13.4c-1.6-2.9-2.4-4.7-2.4-5.4c0-0.4,0.2-0.7,0.7-1.1c0.5-0.3,1.3-0.5,2.5-0.5h0.9v-1.1h-19.4v1.1
						c1.3,0,2.3,0.3,3.1,0.9c0.8,0.6,2.1,2.6,4,6l9.5,17.3v8.1c0,2-0.1,3.3-0.3,3.8c-0.3,0.7-0.7,1.2-1.2,1.4
						c-0.7,0.4-1.6,0.6-2.8,0.6h-2.1v1.1h22.7v-1.1h-2.3c-1.1,0-1.9-0.2-2.6-0.6c-0.6-0.4-1.1-0.8-1.3-1.3c-0.2-0.5-0.3-1.8-0.3-3.9
						v-9.8l8.8-14.6c2.1-3.7,3.7-6,4.7-6.8c0.7-0.6,1.7-1,3.1-1.2v-1.1H327.8z"/>
				</defs>
				<clipPath id="SVGID_26_">
					<use xlink:href="#SVGID_25_"  style="overflow:visible;"/>
				</clipPath>
				<g transform="matrix(1 0 0 1 0 0)" style="clip-path:url(#SVGID_26_);">
					
						<image style="overflow:visible;" width="618" height="17" xlink:href="8DEEC28111AD12EE.jpg"  transform="matrix(0.2401 0 0 0.2393 297.1219 231.2991)">
					</image>
				</g>
			</g>
		</g>
	</g>
	
		<linearGradient id="SVGID_27_" gradientUnits="userSpaceOnUse" x1="90" y1="702" x2="91" y2="702" gradientTransform="matrix(670.9397 0 0 -670.9397 -60304.5742 471288.4062)">
		<stop  offset="0" style="stop-color:#E3BB52"/>
		<stop  offset="5.056180e-02" style="stop-color:#E3BB52"/>
		<stop  offset="5.119805e-02" style="stop-color:#E3BC56"/>
		<stop  offset="6.176364e-02" style="stop-color:#ECD08E"/>
		<stop  offset="7.128691e-02" style="stop-color:#F3E2BB"/>
		<stop  offset="7.944467e-02" style="stop-color:#F8EFDC"/>
		<stop  offset="8.591317e-02" style="stop-color:#FDFAF3"/>
		<stop  offset="8.988760e-02" style="stop-color:#FFFFFF"/>
		<stop  offset="9.016337e-02" style="stop-color:#FEFCF8"/>
		<stop  offset="9.326009e-02" style="stop-color:#F7EBD2"/>
		<stop  offset="9.663989e-02" style="stop-color:#F2DEB3"/>
		<stop  offset="0.1004" style="stop-color:#EDD498"/>
		<stop  offset="0.1046" style="stop-color:#EACC83"/>
		<stop  offset="0.1093" style="stop-color:#E7C572"/>
		<stop  offset="0.1148" style="stop-color:#E5C164"/>
		<stop  offset="0.1216" style="stop-color:#E4BD5A"/>
		<stop  offset="0.1311" style="stop-color:#E3BB54"/>
		<stop  offset="0.1573" style="stop-color:#E3BB52"/>
		<stop  offset="0.1629" style="stop-color:#E3BB52"/>
		<stop  offset="0.1854" style="stop-color:#E3BB52"/>
		<stop  offset="0.1946" style="stop-color:#E4BC57"/>
		<stop  offset="0.2058" style="stop-color:#E5C064"/>
		<stop  offset="0.218" style="stop-color:#E8C778"/>
		<stop  offset="0.2309" style="stop-color:#ECD292"/>
		<stop  offset="0.2444" style="stop-color:#F2E0B6"/>
		<stop  offset="0.2581" style="stop-color:#FAF2E3"/>
		<stop  offset="0.264" style="stop-color:#FFFFFF"/>
		<stop  offset="0.2644" style="stop-color:#FEFCF8"/>
		<stop  offset="0.2685" style="stop-color:#F7EBD2"/>
		<stop  offset="0.273" style="stop-color:#F2DEB3"/>
		<stop  offset="0.2781" style="stop-color:#EDD498"/>
		<stop  offset="0.2836" style="stop-color:#EACC83"/>
		<stop  offset="0.2899" style="stop-color:#E7C572"/>
		<stop  offset="0.2973" style="stop-color:#E5C164"/>
		<stop  offset="0.3063" style="stop-color:#E4BD5A"/>
		<stop  offset="0.319" style="stop-color:#E3BB54"/>
		<stop  offset="0.3539" style="stop-color:#E3BB52"/>
		<stop  offset="0.4157" style="stop-color:#E3BB52"/>
		<stop  offset="0.5056" style="stop-color:#E3BB52"/>
		<stop  offset="0.5562" style="stop-color:#FFFFFF"/>
		<stop  offset="0.5604" style="stop-color:#FBF5E8"/>
		<stop  offset="0.5706" style="stop-color:#F4E5C3"/>
		<stop  offset="0.5816" style="stop-color:#EFD9A4"/>
		<stop  offset="0.5934" style="stop-color:#EBCF8B"/>
		<stop  offset="0.6061" style="stop-color:#E8C778"/>
		<stop  offset="0.6202" style="stop-color:#E6C268"/>
		<stop  offset="0.6363" style="stop-color:#E4BE5C"/>
		<stop  offset="0.6561" style="stop-color:#E3BB54"/>
		<stop  offset="0.691" style="stop-color:#E3BB52"/>
		<stop  offset="0.736" style="stop-color:#FFFFFF"/>
		<stop  offset="0.737" style="stop-color:#FEFCF8"/>
		<stop  offset="0.7492" style="stop-color:#F7EBD2"/>
		<stop  offset="0.7624" style="stop-color:#F2DEB3"/>
		<stop  offset="0.7772" style="stop-color:#EDD498"/>
		<stop  offset="0.7935" style="stop-color:#EACC83"/>
		<stop  offset="0.812" style="stop-color:#E7C572"/>
		<stop  offset="0.8335" style="stop-color:#E5C164"/>
		<stop  offset="0.8601" style="stop-color:#E4BD5A"/>
		<stop  offset="0.8973" style="stop-color:#E3BB54"/>
		<stop  offset="1" style="stop-color:#E3BB52"/>
		<stop  offset="1" style="stop-color:#E6C165"/>
		<stop  offset="1" style="stop-color:#EBCB82"/>
		<stop  offset="1" style="stop-color:#EFD49B"/>
		<stop  offset="1" style="stop-color:#F3DCB1"/>
		<stop  offset="1" style="stop-color:#F7E3C3"/>
		<stop  offset="1" style="stop-color:#FAE9D1"/>
		<stop  offset="1" style="stop-color:#FDEEDB"/>
		<stop  offset="1" style="stop-color:#FFF0E1"/>
		<stop  offset="1" style="stop-color:#FFF1E3"/>
	</linearGradient>
	<path class="st13" d="M81.4,299.6c20.4-2.4,39.3-10,60.6-9.1l4.5,0.1l-4.2-1l1.2,0.7c-2.7,5.3,5.5,10.4,13.2,11.1
		c12.4,1.1,23-2.9,34.2-5.4c25.1-5.5,50.4-9,76.4-11.1l4.9,0.3l-3.6-0.8l-0.3-0.6c4.8,4,8.1,10.7,16.6,11.1c21.3,1,41-5.6,62.4-7
		c17.4-1.1,34.3-2.4,51.7-1.8c2.4,0,4.6,0.5,7,1c8.6,2,15.2,6.1,23.8,8.1c23.4,5.6,47.7,2.7,71.7,1.4c52.2-2.8,191.8-8.1,243.8-6.2
		c2.6,0.3,5.2-0.9,5.6-2.6c0.4-1.7-1.4-3.4-4-3.8c-19-5.6-128.6-4-148.7-3.2c-47,1.9-92.7,6.6-139.7,7.9c-15,0.4-28.4-3.9-41.5-8.6
		c-22.5-8-48-3.1-72.2-1.6c-19.7,1.3-38,5.3-57.1,7.7c-2.1-1.9-4-3.9-6.1-5.7l-5.1-3.7c-1-0.5-2.3-0.8-3.6-0.8l-2.6-0.1
		c-19.1,0.2-37.1,3.2-56.1,6c-19.3,2.8-35.9,8.1-55.2,10.9c-0.6,0.1-1.7-0.3-2-0.8c-2.4-2.8-1-6.4-6.5-8.6l-0.3-0.3
		c-1.1-0.6-2.6-1-4.1-1l-4.7,0.1c-21.8,2-41.9,8.6-60.7,15.7c-0.6,0.1-0.8,0.5-0.6,0.9C80.2,299.6,80.9,299.7,81.4,299.6z"/>
	
		<linearGradient id="SVGID_28_" gradientUnits="userSpaceOnUse" x1="90" y1="702" x2="91" y2="702" gradientTransform="matrix(582.3142 0 0 -582.3142 -52328.2773 409004.5312)">
		<stop  offset="0" style="stop-color:#E3BB52"/>
		<stop  offset="5.056180e-02" style="stop-color:#E3BB52"/>
		<stop  offset="5.119805e-02" style="stop-color:#E3BC56"/>
		<stop  offset="6.176364e-02" style="stop-color:#ECD08E"/>
		<stop  offset="7.128691e-02" style="stop-color:#F3E2BB"/>
		<stop  offset="7.944467e-02" style="stop-color:#F8EFDC"/>
		<stop  offset="8.591317e-02" style="stop-color:#FDFAF3"/>
		<stop  offset="8.988760e-02" style="stop-color:#FFFFFF"/>
		<stop  offset="9.016337e-02" style="stop-color:#FEFCF8"/>
		<stop  offset="9.326009e-02" style="stop-color:#F7EBD2"/>
		<stop  offset="9.663989e-02" style="stop-color:#F2DEB3"/>
		<stop  offset="0.1004" style="stop-color:#EDD498"/>
		<stop  offset="0.1046" style="stop-color:#EACC83"/>
		<stop  offset="0.1093" style="stop-color:#E7C572"/>
		<stop  offset="0.1148" style="stop-color:#E5C164"/>
		<stop  offset="0.1216" style="stop-color:#E4BD5A"/>
		<stop  offset="0.1311" style="stop-color:#E3BB54"/>
		<stop  offset="0.1573" style="stop-color:#E3BB52"/>
		<stop  offset="0.1629" style="stop-color:#E3BB52"/>
		<stop  offset="0.1854" style="stop-color:#E3BB52"/>
		<stop  offset="0.1946" style="stop-color:#E4BC57"/>
		<stop  offset="0.2058" style="stop-color:#E5C064"/>
		<stop  offset="0.218" style="stop-color:#E8C778"/>
		<stop  offset="0.2309" style="stop-color:#ECD292"/>
		<stop  offset="0.2444" style="stop-color:#F2E0B6"/>
		<stop  offset="0.2581" style="stop-color:#FAF2E3"/>
		<stop  offset="0.264" style="stop-color:#FFFFFF"/>
		<stop  offset="0.2644" style="stop-color:#FEFCF8"/>
		<stop  offset="0.2685" style="stop-color:#F7EBD2"/>
		<stop  offset="0.273" style="stop-color:#F2DEB3"/>
		<stop  offset="0.2781" style="stop-color:#EDD498"/>
		<stop  offset="0.2836" style="stop-color:#EACC83"/>
		<stop  offset="0.2899" style="stop-color:#E7C572"/>
		<stop  offset="0.2973" style="stop-color:#E5C164"/>
		<stop  offset="0.3063" style="stop-color:#E4BD5A"/>
		<stop  offset="0.319" style="stop-color:#E3BB54"/>
		<stop  offset="0.3539" style="stop-color:#E3BB52"/>
		<stop  offset="0.4157" style="stop-color:#E3BB52"/>
		<stop  offset="0.5056" style="stop-color:#E3BB52"/>
		<stop  offset="0.5562" style="stop-color:#FFFFFF"/>
		<stop  offset="0.5604" style="stop-color:#FBF5E8"/>
		<stop  offset="0.5706" style="stop-color:#F4E5C3"/>
		<stop  offset="0.5816" style="stop-color:#EFD9A4"/>
		<stop  offset="0.5934" style="stop-color:#EBCF8B"/>
		<stop  offset="0.6061" style="stop-color:#E8C778"/>
		<stop  offset="0.6202" style="stop-color:#E6C268"/>
		<stop  offset="0.6363" style="stop-color:#E4BE5C"/>
		<stop  offset="0.6561" style="stop-color:#E3BB54"/>
		<stop  offset="0.691" style="stop-color:#E3BB52"/>
		<stop  offset="0.736" style="stop-color:#FFFFFF"/>
		<stop  offset="0.737" style="stop-color:#FEFCF8"/>
		<stop  offset="0.7492" style="stop-color:#F7EBD2"/>
		<stop  offset="0.7624" style="stop-color:#F2DEB3"/>
		<stop  offset="0.7772" style="stop-color:#EDD498"/>
		<stop  offset="0.7935" style="stop-color:#EACC83"/>
		<stop  offset="0.812" style="stop-color:#E7C572"/>
		<stop  offset="0.8335" style="stop-color:#E5C164"/>
		<stop  offset="0.8601" style="stop-color:#E4BD5A"/>
		<stop  offset="0.8973" style="stop-color:#E3BB54"/>
		<stop  offset="1" style="stop-color:#E3BB52"/>
		<stop  offset="1" style="stop-color:#E6C165"/>
		<stop  offset="1" style="stop-color:#EBCB82"/>
		<stop  offset="1" style="stop-color:#EFD49B"/>
		<stop  offset="1" style="stop-color:#F3DCB1"/>
		<stop  offset="1" style="stop-color:#F7E3C3"/>
		<stop  offset="1" style="stop-color:#FAE9D1"/>
		<stop  offset="1" style="stop-color:#FDEEDB"/>
		<stop  offset="1" style="stop-color:#FFF0E1"/>
		<stop  offset="1" style="stop-color:#FFF1E3"/>
	</linearGradient>
	<path class="st14" d="M81.4,230.8c20.4-2.4,39.3-10,60.6-9.1l4.5,0.1l-4.2-1l1.2,0.6c-2.7,5.3,5.5,10.4,13.2,11.1
		c12.4,1.1,23-2.9,34.2-5.4c25.1-5.5,50.4-9,76.4-11.1l4.9,0.3l-3.6-0.8l-0.3-0.6c4.8,4,8.1,10.7,16.6,11.1c21.3,1,41-5.6,62.4-7
		c17.4-1.1,34.3-2.4,51.7-1.8c2.4,0,4.6,0.5,7,1c8.6,2,15.2,6.1,23.8,8.1c23.4,5.6,47.7,2.7,71.7,1.4c52.2-2.8,103.1-8.1,155.2-6.2
		c2.6,0.3,5.2-0.9,5.6-2.6c0.4-1.7-1.4-3.4-4-3.8c-19-5.6-40-4-60.1-3.2c-47,1.9-92.7,6.6-139.7,7.9c-15,0.4-28.4-3.9-41.5-8.6
		c-22.5-8-48-3.1-72.2-1.6c-19.7,1.3-38,5.3-57.1,7.7c-2.1-1.9-4-3.9-6.1-5.7l-5.1-3.7c-1-0.5-2.3-0.8-3.6-0.8l-2.6-0.1
		c-19.1,0.2-37.1,3.2-56.1,6c-19.3,2.8-35.9,8.1-55.2,10.9c-0.6,0.1-1.7-0.3-2-0.8c-2.4-2.8-1-6.4-6.5-8.6l-0.3-0.3
		c-1.1-0.7-2.6-1-4.1-1l-4.7,0.1c-21.8,2-41.9,8.6-60.7,15.7c-0.6,0.1-0.8,0.5-0.6,0.9C80.2,230.8,80.9,230.9,81.4,230.8z"/>
	<g>
		<path class="st1" d="M108.7,414l-7-20.6h3.5l4,13.5c0.4,1.4,0.8,2.8,1.1,4.2l1.2-3.8l5-13.9h4.2l3.7,10.4c0.9,2.5,1.6,5,2,7.3
			c0.3-1.3,0.8-2.8,1.3-4.5l4.1-13.2h3.5l-7.2,20.6h-3.3l-5.5-15.7l-0.8-2.4c-0.2,0.9-0.5,1.7-0.8,2.4l-5.5,15.7H108.7z"/>
	</g>
	<g>
		<path class="st2" d="M108.7,414l-7-20.6h3.5l4,13.5c0.4,1.4,0.8,2.8,1.1,4.2l1.2-3.8l5-13.9h4.2l3.7,10.4c0.9,2.5,1.6,5,2,7.3
			c0.3-1.3,0.8-2.8,1.3-4.5l4.1-13.2h3.5l-7.2,20.6h-3.3l-5.5-15.7l-0.8-2.4c-0.2,0.9-0.5,1.7-0.8,2.4l-5.5,15.7H108.7z"/>
	</g>
	<g>
		<path class="st1" d="M482.2,413.7l-7-20.6h3.5l4,13.5c0.4,1.4,0.8,2.8,1.1,4.2l1.2-3.8l5-13.9h4.2l3.7,10.4c0.9,2.5,1.6,5,2,7.3
			c0.3-1.3,0.8-2.8,1.3-4.5l4.1-13.2h3.5l-7.2,20.6h-3.3l-5.5-15.7l-0.8-2.4c-0.2,0.9-0.5,1.7-0.8,2.4l-5.5,15.7H482.2z"/>
	</g>
	<g>
		<path class="st2" d="M482.2,413.7l-7-20.6h3.5l4,13.5c0.4,1.4,0.8,2.8,1.1,4.2l1.2-3.8l5-13.9h4.2l3.7,10.4c0.9,2.5,1.6,5,2,7.3
			c0.3-1.3,0.8-2.8,1.3-4.5l4.1-13.2h3.5l-7.2,20.6h-3.3l-5.5-15.7l-0.8-2.4c-0.2,0.9-0.5,1.7-0.8,2.4l-5.5,15.7H482.2z"/>
	</g>
	<g>
		<path class="st1" d="M630.2,414.4v-20.6h9c2.2,0,3.9,0.1,5.1,0.4c1.5,0.3,2.8,0.9,4,1.8c1.1,0.9,2,2,2.6,3.3s0.9,2.9,0.9,4.7
			c0,2.3-0.5,4.3-1.6,5.9c-1.1,1.6-2.4,2.8-4.1,3.5c-1.7,0.7-3.8,1-6.5,1H630.2z M633.7,412h5.6c2.2,0,4-0.2,5.1-0.7
			c1.2-0.5,2.1-1.2,2.7-2.3c0.8-1.4,1.2-3.1,1.2-5c0-2.1-0.4-3.7-1.3-4.9s-2-2-3.4-2.4c-0.9-0.3-2.4-0.4-4.4-0.4h-5.5V412z"/>
	</g>
	<g>
		<path class="st2" d="M630.2,414.4v-20.6h9c2.2,0,3.9,0.1,5.1,0.4c1.5,0.3,2.8,0.9,4,1.8c1.1,0.9,2,2,2.6,3.3s0.9,2.9,0.9,4.7
			c0,2.3-0.5,4.3-1.6,5.9c-1.1,1.6-2.4,2.8-4.1,3.5c-1.7,0.7-3.8,1-6.5,1H630.2z M633.7,412h5.6c2.2,0,4-0.2,5.1-0.7
			c1.2-0.5,2.1-1.2,2.7-2.3c0.8-1.4,1.2-3.1,1.2-5c0-2.1-0.4-3.7-1.3-4.9s-2-2-3.4-2.4c-0.9-0.3-2.4-0.4-4.4-0.4h-5.5V412z"/>
	</g>
</g>
</svg>
