<svg xmlns="http://www.w3.org/2000/svg" xmlns:xlink="http://www.w3.org/1999/xlink" width="185" height="18" viewBox="0 0 185 18"><defs><path id="a" d="M641.86 7647.78c0 1.59-.55 2.96-1.74 4.08a5.73 5.73 0 0 1-4.2 1.7h-5.95v5.77H627v-8.66h8.92a2.96 2.96 0 0 0 2.97-2.86c0-.79-.3-1.48-.89-2.02a2.75 2.75 0 0 0-2.08-.9h-5.95L627 7642h8.92c1.63 0 3.05.58 4.2 1.7a5.56 5.56 0 0 1 1.74 4.08z"/><path id="b" d="M646.83 7656.44l-1.52 2.89H642l8.92-17.33 5.94 11.56h-3.34l-2.6-5.1-2.64 5.1zm13.01 2.89h-3.31l-1.49-2.89h3.31z"/><path id="c" d="M674.42 7654.49l2.97.94a8.5 8.5 0 0 1-1.41 1.59c-.52.47-1.12.91-1.75 1.23-.63.36-1.3.61-2.04.79-.71.19-1.45.29-2.23.29a8.6 8.6 0 0 1-6.28-2.56 8.18 8.18 0 0 1-2.68-6.1c0-2.39.85-4.41 2.64-6.11a8.66 8.66 0 0 1 6.28-2.56 8.8 8.8 0 0 1 3.49.69 9.44 9.44 0 0 1 2.86 1.87l-2.15 2.03a5.78 5.78 0 0 0-4.2-1.7c-1.64 0-3.05.54-4.2 1.7a5.48 5.48 0 0 0-1.71 4.08c0 1.59.56 2.96 1.71 4.08a5.86 5.86 0 0 0 4.2 1.66 6.22 6.22 0 0 0 4.5-1.92zm2.93-5.27l-2.97 2.89h-4.5v-2.89z"/><path id="d" d="M682 7642v2.89h11.15l3.71-2.89zm11.15 7.22H682v2.89h11.15zm0 7.22H682v2.89h14.86v-.25z"/><path id="e" d="M705 7642h1l1.64 2.46 1.63-2.46h1.01v5.16h-.93v-3.72l-1.67 2.42h-.04l-1.67-2.42v3.69h-.93V7642z"/><path id="f" d="M719 7642h3.94v.79h-3.01v1.34h2.67v.8h-2.67v1.37h3.05v.79H719V7642z"/><path id="g" d="M732 7642h1.97c1.67 0 2.82 1.12 2.82 2.6 0 1.44-1.15 2.6-2.82 2.6H732zm1.97 4.33c1.11 0 1.86-.72 1.86-1.77 0-1.01-.75-1.77-1.86-1.77h-1.04v3.51h1.04z"/><path id="h" d="M745 7642h.93v5.16H745z"/><path id="i" d="M756.42 7642h.85l2.34 5.2h-1l-.56-1.26h-2.53l-.55 1.26H754zm1.33 3.14l-.93-2.06-.92 2.06z"/><path id="j" d="M705 7658.44l.56-.65c.52.44 1 .69 1.67.69.59 0 .93-.25.93-.65 0-.36-.22-.58-1.19-.8-1.12-.25-1.78-.57-1.78-1.55 0-.9.74-1.48 1.82-1.48.78 0 1.37.22 1.93.65l-.48.69a2.46 2.46 0 0 0-1.45-.55c-.56 0-.86.29-.86.62 0 .4.26.58 1.27.79 1.11.26 1.71.65 1.71 1.52 0 .97-.79 1.55-1.9 1.55-.85 0-1.6-.29-2.23-.83z"/><path id="k" d="M718 7656.67a2.7 2.7 0 0 1 2.79-2.67 2.67 2.67 0 0 1 2.78 2.67 2.68 2.68 0 0 1-2.78 2.67c-1.68 0-2.79-1.19-2.79-2.67zm4.57 0c0-1.01-.74-1.84-1.82-1.84-1.04 0-1.78.83-1.78 1.84 0 1.01.74 1.84 1.82 1.84 1.04 0 1.78-.83 1.78-1.84z"/><path id="l" d="M732 7654h.93v4.33h2.79v.83H732z"/><path id="m" d="M744 7656.96V7654h.93v2.93c0 .97.52 1.48 1.34 1.48.81 0 1.33-.47 1.33-1.45V7654h.93v2.93c0 1.55-.89 2.31-2.3 2.31-1.34 0-2.23-.76-2.23-2.28z"/><path id="n" d="M758.67 7654.83H757v-.83h4.31v.83h-1.67v4.33h-.93v-4.33z"/><path id="o" d="M770 7654h.93v5.16H770z"/><path id="p" d="M780 7656.67a2.7 2.7 0 0 1 2.79-2.67 2.67 2.67 0 0 1 2.78 2.67 2.68 2.68 0 0 1-2.78 2.67c-1.68 0-2.79-1.19-2.79-2.67zm4.57 0c0-1.01-.74-1.84-1.82-1.84s-1.78.83-1.78 1.84c0 1.01.74 1.84 1.82 1.84 1.07 0 1.78-.83 1.78-1.84z"/><path id="q" d="M794 7654h.85l2.87 3.58V7654h.93v5.16h-.79l-2.93-3.68v3.68H794z"/><path id="r" d="M807 7658.44l.56-.65c.52.44 1 .69 1.67.69.59 0 .93-.25.93-.65 0-.36-.22-.58-1.19-.8-1.12-.25-1.78-.57-1.78-1.55 0-.9.74-1.48 1.82-1.48.78 0 1.37.22 1.93.65l-.48.69a2.46 2.46 0 0 0-1.45-.55c-.56 0-.86.29-.86.62 0 .4.26.58 1.27.79 1.11.26 1.71.65 1.71 1.52 0 .97-.79 1.55-1.9 1.55a3.4 3.4 0 0 1-2.23-.83z"/></defs><g transform="translate(-627 -7642)"><use fill="#c1d7e6" xlink:href="#a"/><use fill="#c1d7e6" xlink:href="#b"/><use fill="#c1d7e6" xlink:href="#c"/><use fill="#c1d7e6" xlink:href="#d"/><use fill="#c1d7e6" xlink:href="#e"/><use fill="#c1d7e6" xlink:href="#f"/><use fill="#c1d7e6" xlink:href="#g"/><use fill="#c1d7e6" xlink:href="#h"/><use fill="#c1d7e6" xlink:href="#i"/><g><use fill="#c1d7e6" xlink:href="#j"/></g><g><use fill="#c1d7e6" xlink:href="#k"/></g><g><use fill="#c1d7e6" xlink:href="#l"/></g><g><use fill="#c1d7e6" xlink:href="#m"/></g><g><use fill="#c1d7e6" xlink:href="#n"/></g><g><use fill="#c1d7e6" xlink:href="#o"/></g><g><use fill="#c1d7e6" xlink:href="#p"/></g><g><use fill="#c1d7e6" xlink:href="#q"/></g><g><use fill="#c1d7e6" xlink:href="#r"/></g></g></svg>