<?xml version="1.0" encoding="utf-8"?>
<!-- Generator: Adobe Illustrator 21.0.0, SVG Export Plug-In . SVG Version: 6.00 Build 0)  -->
<svg version="1.1" xmlns="http://www.w3.org/2000/svg" xmlns:xlink="http://www.w3.org/1999/xlink" x="0px" y="0px"
	 viewBox="0 0 283.5 283.5" style="enable-background:new 0 0 283.5 283.5;" xml:space="preserve">
<style type="text/css">
	.st0{fill:url(#SVGID_1_);}
	.st1{fill:url(#SVGID_2_);}
	.st2{fill:#007FA5;}
</style>
<g>
	<linearGradient id="SVGID_1_" gradientUnits="userSpaceOnUse" x1="87.3391" y1="166.7019" x2="171.9114" y2="45.92">
		<stop  offset="0.1398" style="stop-color:#078AB3"/>
		<stop  offset="0.5484" style="stop-color:#19C2E8"/>
		<stop  offset="0.914" style="stop-color:#5FC8D5"/>
	</linearGradient>
	<path class="st0" d="M67.9,153.1c14.8-66.4,76.6-90,123.2-93.8c-47.2,21.3-55.3,49.2-54.7,93.8C134.9,140.9,88.3,104.8,67.9,153.1z
		"/>
	<linearGradient id="SVGID_2_" gradientUnits="userSpaceOnUse" x1="152.2338" y1="164.2633" x2="190.0948" y2="110.1922">
		<stop  offset="0.1452" style="stop-color:#0086B3"/>
		<stop  offset="0.5484" style="stop-color:#46C6E9"/>
		<stop  offset="0.9946" style="stop-color:#74CDD6"/>
	</linearGradient>
	<path class="st1" d="M196.7,153.4c-33.5-20.7-53.3-17.4-59.9,0c0.7-19.5,12.6-46.1,32.9-57.5C168.2,115.4,170.6,121.1,196.7,153.4z
		"/>
	<g>
		<path class="st2" d="M35.9,176.2h4.7l2,5.7h0l0.8-3.1h0v3.4l-2.4,7.9h-0.5l-3.9-11.6c-0.1-0.3-0.2-0.6-0.3-0.8
			c-0.2-0.3-0.2-0.5-0.6-0.5c-0.2,0-0.7-0.1-0.7-0.5C35.1,176.2,35.6,176.2,35.9,176.2z M36.7,180.9L36.7,180.9l1.1,3.1v3.2
			c0.3,2.3,1.5,1.6,1.5,2.4c0,0.6-0.8,0.5-1,0.5h-2.1c-0.2,0-1,0-1-0.5c0-0.8,1.2-0.1,1.5-2.4V180.9z M44.4,176.2h4.9
			c0.1,0,0.7,0,0.7,0.6c0,0.3-0.2,0.4-0.4,0.5c-0.7,0.2-0.6,0.3-0.6,1v9.8c0,0.7,0,0.8,0.6,1c0.2,0.1,0.4,0.2,0.4,0.5
			c0,0.5-0.6,0.6-0.7,0.6H44c-0.1,0-0.7,0-0.7-0.6c0-0.3,0.2-0.4,0.4-0.5c0.7-0.2,0.6-0.3,0.6-1V176.2z"/>
		<path class="st2" d="M68.5,180.9l-1.8,6.4c-0.3,1.1,0,1.5,0.6,1.7c0.3,0.1,0.6,0.2,0.6,0.6c0,0.5-0.6,0.5-1,0.5h-2.1
			c-0.4,0-1,0-1-0.6c0-0.4,0.3-0.4,0.7-0.6c0.4-0.2,0.9-0.6,1.3-2l2.2-8.2H68L68.5,180.9z M70.5,186.5h-2.7l0.3-1.1h2.3l-1.9-8.3
			l0.2-1h4.1l2.8,11.8c0.1,0.5,0.1,0.9,0.7,1.1c0.3,0.1,0.5,0.2,0.5,0.6c0,0.5-0.7,0.5-1,0.5H71c-0.4,0-0.9,0-0.9-0.5
			c0-0.3,0.1-0.4,0.4-0.5c0.5-0.3,0.6-0.4,0.4-1.1L70.5,186.5z"/>
		<path class="st2" d="M91.9,178.2c0-0.7,0-0.8-0.6-1c-0.2-0.1-0.4-0.2-0.4-0.5c0-0.5,0.6-0.6,0.7-0.6h4.9V188c0,0.7,0,0.8,0.6,1
			c0.2,0.1,0.4,0.2,0.4,0.5c0,0.5-0.6,0.6-0.7,0.6h-5.3c-0.1,0-0.7,0-0.7-0.6c0-0.3,0.2-0.4,0.4-0.5c0.7-0.2,0.6-0.3,0.6-1V178.2z
			 M97.3,176.2L97.3,176.2c1.3,0,2.6,0,3.7,0.5c1.3,0.6,1.9,1.6,1.9,3.1c0,2.1-1.4,3.1-3.3,3.5v0c1.7,0.2,3.3,0.7,3.3,2.7v1.6
			c0,0.2-0.1,0.5,0.2,0.5c0.3,0,0.4-0.5,0.8-0.5c0.2,0,0.5,0.3,0.5,0.5c0,0.5-0.6,1.2-1,1.6c-0.6,0.5-1.3,0.7-2.1,0.7
			c-0.8,0-1.5-0.2-2.1-0.8c-0.7-0.7-0.7-1.5-0.7-2.4V186c0-0.9,0-1.9-1.1-2v-1.1c1-0.1,1.1-0.7,1.1-1.6V179c0-0.9-0.2-1.4-1.1-1.7
			V176.2z"/>
		<path class="st2" d="M124.1,188c0,0.7,0,0.8,0.6,1c0.2,0.1,0.4,0.2,0.4,0.5c0,0.5-0.6,0.6-0.7,0.6h-5.3c-0.1,0-0.7,0-0.7-0.6
			c0-0.3,0.2-0.4,0.4-0.5c0.7-0.2,0.6-0.3,0.6-1v-9.8c0-0.7,0-0.8-0.6-1c-0.2-0.1-0.4-0.2-0.4-0.5c0-0.5,0.6-0.6,0.7-0.6h5.3
			c0.1,0,0.7,0,0.7,0.6c0,0.3-0.2,0.4-0.4,0.5c-0.7,0.2-0.6,0.3-0.6,1V188z"/>
		<path class="st2" d="M141.3,179.7L141.3,179.7l1.1,1.9v5.6c0.3,2.3,1.5,1.6,1.5,2.4c0,0.6-0.8,0.5-1,0.5h-2.1c-0.2,0-1,0-1-0.5
			c0-0.8,1.2-0.1,1.5-2.4V179.7z M151,185.6v4.5h-2.8l-6.8-11.8c-0.3-0.5-0.4-0.8-1-1c-0.3-0.1-0.6-0.2-0.6-0.6c0-0.6,0.6-0.6,1-0.6
			h4.8L151,185.6z M149.9,179.5c0-2.7-1.5-2-1.5-2.8c0-0.5,0.6-0.6,0.8-0.6h2.5c0.2,0,0.8,0,0.8,0.6c0,0.9-1.5,0.1-1.5,2.8v4.5h0
			l-1-1.9V179.5z"/>
		<path class="st2" d="M167.7,176.2h4.9v14h-4.9c-0.1,0-0.7,0-0.7-0.6c0-0.3,0.2-0.4,0.4-0.5c0.7-0.2,0.6-0.3,0.6-1v-9.8
			c0-0.7,0-0.8-0.6-1c-0.2-0.1-0.4-0.2-0.4-0.5C167,176.2,167.6,176.2,167.7,176.2z M173.5,176.2h4.2v3.8c0,0.1,0,0.4-0.6,0.4
			c-0.3,0-0.4-0.2-0.5-0.5c-0.5-1.5-1.4-2.4-3.1-2.7V176.2z M173.5,182.4c0.8-0.2,1.1-0.9,1.3-1.6c0.1-0.3,0.2-0.6,0.6-0.6
			c0.6,0,0.5,0.7,0.5,0.8v4c0,0.1,0.1,0.8-0.5,0.8c-0.4,0-0.5-0.3-0.6-0.6c-0.2-0.7-0.5-1.4-1.3-1.6V182.4z M173.5,189
			c1.5-0.2,2.7-1.2,3.2-2.7c0.1-0.3,0.2-0.6,0.6-0.6c0.6,0,0.5,0.6,0.5,0.6v3.7h-4.3V189z"/>
		<path class="st2" d="M193.7,178.2c0-0.7,0-0.8-0.6-1c-0.2-0.1-0.4-0.2-0.4-0.5c0-0.5,0.6-0.6,0.7-0.6h4.9V188c0,0.7,0,0.8,0.6,1
			c0.2,0.1,0.4,0.2,0.4,0.5c0,0.5-0.6,0.6-0.7,0.6h-5.3c-0.1,0-0.7,0-0.7-0.6c0-0.3,0.2-0.4,0.4-0.5c0.7-0.2,0.6-0.3,0.6-1V178.2z
			 M199.1,176.2L199.1,176.2c1.3,0,2.6,0,3.7,0.5c1.3,0.6,1.9,1.6,1.9,3.1c0,2.1-1.4,3.1-3.3,3.5v0c1.7,0.2,3.3,0.7,3.3,2.7v1.6
			c0,0.2-0.1,0.5,0.2,0.5c0.3,0,0.4-0.5,0.8-0.5c0.2,0,0.5,0.3,0.5,0.5c0,0.5-0.6,1.2-1,1.6c-0.6,0.5-1.3,0.7-2.1,0.7
			c-0.8,0-1.5-0.2-2.1-0.8c-0.7-0.7-0.7-1.5-0.7-2.4V186c0-0.9,0-1.9-1.1-2v-1.1c1-0.1,1.1-0.7,1.1-1.6V179c0-0.9-0.2-1.4-1.1-1.7
			V176.2z"/>
		<path class="st2" d="M225.3,177c-0.9,0.3-1,0.9-1,1.3v9.7c0,0.5,0.1,1,1,1.3v1.1c-4-0.4-5.8-3.6-5.8-7.3s1.8-6.9,5.8-7.3V177z
			 M226.2,189.3c0.9-0.3,1-0.9,1-1.3v-9.7c0-0.5-0.1-1-1-1.3v-1.1c4,0.4,5.8,3.6,5.8,7.3s-1.8,6.9-5.8,7.3V189.3z"/>
	</g>
</g>
</svg>
