<?xml version="1.0" encoding="UTF-8"?>
<svg width="12px" height="13px" viewBox="0 0 12 13" version="1.1" xmlns="http://www.w3.org/2000/svg" xmlns:xlink="http://www.w3.org/1999/xlink">
    <!-- Generator: Sketch 46.1 (44463) - http://www.bohemiancoding.com/sketch -->
    <title>youtube-logo</title>
    <desc>Created with Sketch.</desc>
    <defs></defs>
    <g id="landing" stroke="none" stroke-width="1" fill="none" fill-rule="evenodd" opacity="0.699999988">
        <g id="landing_1440" transform="translate(-1307.000000, -39.000000)" fill-rule="nonzero" fill="#C1D7E6">
            <g id="шапка">
                <g id="social" transform="translate(1236.000000, 39.000000)">
                    <g id="youtube-logo" transform="translate(71.933333, 0.000000)">
                        <path d="M10.561332,6.71267188 C10.4985918,6.42745898 10.359502,6.1882793 10.1445195,5.99503125 C9.92935937,5.8017832 9.68172461,5.68818555 9.40133594,5.65433984 C8.51215625,5.55770313 7.17109961,5.50941016 5.37801367,5.50941016 C3.58497852,5.50941016 2.24630859,5.55772852 1.36187695,5.65433984 C1.07681641,5.68818555 0.8279375,5.8017832 0.615214844,5.99503125 C0.402542969,6.18835547 0.262386719,6.42756055 0.194695312,6.71267188 C0.0690625,7.27337305 0.00622070312,8.11908398 0.00622070312,9.24998242 C0.00622070312,10.4001523 0.0690625,11.2459395 0.194695312,11.7872676 C0.257613281,12.0722773 0.396576172,12.3116602 0.611634766,12.504832 C0.826693359,12.6981563 1.07437891,12.809291 1.35464062,12.8383125 C2.24397266,12.9397988 3.58513086,12.9905547 5.37806445,12.9905547 C7.17087109,12.9905547 8.5122832,12.9397988 9.40128516,12.8383125 C9.68167383,12.809291 9.92808984,12.6981563 10.1408125,12.504832 C10.3535098,12.3116855 10.493666,12.0722773 10.5612812,11.7872676 C10.6869141,11.2265664 10.749832,10.3808555 10.749832,9.24998242 C10.7498066,8.09978711 10.6868887,7.25397461 10.561332,6.71267188 Z M3.07290039,7.44498828 L2.29724219,7.44498828 L2.29724219,11.5696953 L1.57236523,11.5696953 L1.57236523,7.44498828 L0.811154297,7.44498828 L0.811154297,6.76358008 L3.07292578,6.76358008 L3.07292578,7.44498828 L3.07290039,7.44498828 Z M5.03013672,11.5696953 L4.38496094,11.5696953 L4.38496094,11.1781465 C4.12399609,11.4730586 3.87742773,11.6204258 3.64545898,11.6204258 C3.42318945,11.6204258 3.28300781,11.5309492 3.2250918,11.3521992 C3.18647266,11.2362148 3.16704883,11.0597246 3.16704883,10.822957 L3.16704883,7.98857617 L3.81222461,7.98857617 L3.81222461,10.6272715 C3.81222461,10.7818496 3.81466211,10.8664766 3.81953711,10.881 C3.83403516,10.9824863 3.88474023,11.0332168 3.9717793,11.0332168 C4.10223633,11.0332168 4.24005664,10.9317305 4.38498633,10.7287578 L4.38498633,7.98857617 L5.03016211,7.98857617 L5.03016211,11.5696953 L5.03013672,11.5696953 Z M7.49488086,10.4967637 C7.49488086,10.849541 7.47317187,11.0913359 7.42988086,11.2218691 C7.34751367,11.4875059 7.17607617,11.6204258 6.91513672,11.6204258 C6.68314258,11.6204258 6.45846094,11.4875059 6.24086328,11.2218691 L6.24086328,11.5697715 L5.59578906,11.5697715 L5.59578906,6.76358008 L6.24086328,6.76358008 L6.24086328,8.33665625 C6.44878711,8.07581836 6.67341797,7.94531055 6.91513672,7.94531055 C7.17607617,7.94531055 7.34751367,8.08066797 7.42988086,8.35125586 C7.47314648,8.47688867 7.49488086,8.71609375 7.49488086,9.06889648 L7.49488086,10.4967637 Z M9.94512695,9.90241992 L8.64756445,9.90241992 L8.64756445,10.5330977 C8.64756445,10.8665781 8.75862305,11.0332168 8.98096875,11.0332168 C9.14039648,11.0332168 9.23713477,10.9463301 9.27092969,10.7722012 C9.28047656,10.7239082 9.28542773,10.576541 9.28542773,10.3300996 L9.94510156,10.3300996 L9.94510156,10.4242988 C9.94510156,10.661168 9.94015039,10.801248 9.93057812,10.8448438 C9.91618164,10.9751738 9.86557812,11.1056816 9.77836133,11.2361895 C9.60438477,11.4923555 9.34319141,11.6204258 8.99528906,11.6204258 C8.66198633,11.6204258 8.4009707,11.4971543 8.21241992,11.2507891 C8.07233984,11.0719629 8.0023125,10.7916504 8.0023125,10.4098516 L8.0023125,9.15565625 C8.0023125,8.77388281 8.06990234,8.49357031 8.20510742,8.31474414 C8.39368359,8.06832813 8.65223633,7.94510742 8.98096875,7.94510742 C9.30482617,7.94510742 9.56114453,8.06832813 9.74936523,8.31474414 C9.88002539,8.49357031 9.94512695,8.77388281 9.94512695,9.15565625 L9.94512695,9.90241992 L9.94512695,9.90241992 Z" id="Shape"></path>
                        <path d="M6.56687891,8.5323418 C6.45566797,8.5323418 6.34704687,8.5856875 6.24068555,8.69187109 L6.24068555,10.8737891 C6.34702148,10.9800742 6.45566797,11.0332168 6.56687891,11.0332168 C6.75525195,11.0332168 6.84973047,10.8714277 6.84973047,10.5474941 L6.84973047,9.01806445 C6.84970508,8.69420703 6.75545508,8.5323418 6.56687891,8.5323418 Z" id="Shape"></path>
                        <path d="M8.97375781,8.5323418 C8.75628711,8.5323418 8.64756445,8.69674609 8.64756445,9.02517383 L8.64756445,9.3586543 L9.29992578,9.3586543 L9.29992578,9.02517383 C9.29992578,8.69656836 9.19115234,8.5323418 8.97375781,8.5323418 Z" id="Shape"></path>
                        <path d="M2.65263477,2.89242383 L2.65263477,4.85702344 L3.37751172,4.85702344 L3.37751172,2.89242383 L4.2545293,0 L3.51512891,0 L3.02229688,1.90655664 L2.50755273,0 L1.73918164,0 C1.87451367,0.405996094 2.03158008,0.857822266 2.21040625,1.35563086 C2.43757617,2.02251563 2.58489258,2.53487305 2.65263477,2.89242383 Z" id="Shape"></path>
                        <path d="M5.22589844,4.9077793 C5.55937891,4.9077793 5.81544336,4.7845332 5.99426953,4.53806641 C6.12965234,4.35924023 6.19724219,4.07407813 6.19724219,3.68268164 L6.19724219,2.41401367 C6.19724219,2.02744141 6.12947461,1.74464063 5.99426953,1.56581445 C5.81544336,1.31934766 5.55937891,1.19610156 5.22589844,1.19610156 C4.90201562,1.19610156 4.64826172,1.31934766 4.4646875,1.56581445 C4.32943164,1.74464063 4.26176562,2.02744141 4.26176562,2.41401367 L4.26176562,3.68265625 C4.26176562,4.06922852 4.32935547,4.35441602 4.4646875,4.53804102 C4.64833789,4.7845332 4.90199023,4.9077793 5.22589844,4.9077793 Z M4.91412695,2.28350586 C4.91412695,1.95002539 5.01805078,1.78328516 5.22589844,1.78328516 C5.43374609,1.78328516 5.53756836,1.95002539 5.53756836,2.28350586 L5.53756836,3.80580078 C5.53756836,4.14420703 5.43374609,4.31323242 5.22589844,4.31323242 C5.01805078,4.31323242 4.91412695,4.14410547 4.91412695,3.80580078 L4.91412695,2.28350586 L4.91412695,2.28350586 Z" id="Shape"></path>
                        <path d="M7.21926562,4.9077793 C7.46106055,4.9077793 7.71001562,4.75794922 7.96608008,4.45823828 L7.96608008,4.85694727 L8.62575391,4.85694727 L8.62575391,1.23962109 L7.96608008,1.23962109 L7.96608008,4.00153711 C7.82104883,4.20938477 7.68340625,4.31320703 7.55274609,4.31320703 C7.46568164,4.31320703 7.41492578,4.26006445 7.40050391,4.15375391 C7.3956543,4.14408008 7.3932168,4.05942773 7.3932168,3.9 L7.3932168,1.23962109 L6.73354297,1.23962109 L6.73354297,4.09586328 C6.73354297,4.3422793 6.75301758,4.52344141 6.79158594,4.63950195 C6.85447852,4.81832813 6.99699609,4.9077793 7.21926562,4.9077793 Z" id="Shape"></path>
                    </g>
                </g>
            </g>
        </g>
    </g>
</svg>