<?xml version="1.0" encoding="utf-8"?>
<!-- Generator: Adobe Illustrator 21.0.2, SVG Export Plug-In . SVG Version: 6.00 Build 0)  -->
<svg version="1.1" id="Layer_1" xmlns="http://www.w3.org/2000/svg" xmlns:xlink="http://www.w3.org/1999/xlink" x="0px" y="0px"
	 viewBox="0 0 13.1 13" style="enable-background:new 0 0 13.1 13;" xml:space="preserve">
<style type="text/css">
	.st0{opacity:0.7;}
	.st1{fill:#FFFFFF;}
</style>
<g transform="translate(-1268 -39)">
	<g class="st0">
		<g>
			<path id="a" class="st1" d="M1281,42.6v5.8c0,2-1.6,3.6-3.6,3.6h-5.8c-2,0-3.6-1.6-3.6-3.6v-5.8c0-2,1.6-3.6,3.6-3.6h5.8
				C1279.4,39,1281,40.6,1281,42.6z M1279.9,48.4v-5.8c0-1.3-1.1-2.4-2.4-2.4l0,0h-5.8c-1.3,0-2.4,1.1-2.4,2.4l0,0v5.8
				c0,1.3,1.1,2.4,2.4,2.4l0,0h5.8C1278.8,50.8,1279.9,49.7,1279.9,48.4L1279.9,48.4z"/>
		</g>
	</g>
	<g class="st0">
		<g>
			<path id="b" class="st1" d="M1277.8,45.3c0,1.8-1.5,3.3-3.3,3.3s-3.3-1.5-3.3-3.3s1.5-3.3,3.3-3.3S1277.8,43.5,1277.8,45.3
				L1277.8,45.3z M1276.6,45.3c0.1-1.2-0.8-2.2-2-2.3s-2.2,0.8-2.3,2c0,0.1,0,0.2,0,0.3c0.1,1.2,1.1,2.1,2.3,2
				C1275.7,47.3,1276.5,46.4,1276.6,45.3z"/>
		</g>
	</g>
	<g class="st0">
		<g>
			<path id="c" class="st1" d="M1277.9,41c-0.2,0-0.4,0.1-0.6,0.3s-0.3,0.4-0.3,0.6c0,0.2,0.1,0.4,0.3,0.6c0.2,0.2,0.4,0.2,0.6,0.2
				s0.4-0.1,0.6-0.2c0.2-0.2,0.2-0.4,0.2-0.6c0-0.2-0.1-0.4-0.2-0.6C1278.4,41.1,1278.2,41,1277.9,41z"/>
		</g>
	</g>
</g>
</svg>
