<?xml version="1.0" encoding="utf-8"?>
<!-- Generator: Adobe Illustrator 21.0.2, SVG Export Plug-In . SVG Version: 6.00 Build 0)  -->
<svg version="1.1" id="Layer_1" xmlns="http://www.w3.org/2000/svg" xmlns:xlink="http://www.w3.org/1999/xlink" x="0px" y="0px"
	 viewBox="0 0 210 140" style="enable-background:new 0 0 210 140;" xml:space="preserve">
<style type="text/css">
	.st0{fill:url(#SVGID_1_);}
	.st1{fill:url(#SVGID_2_);}
	.st2{fill:#007FA5;}
</style>
<g>
	
		<linearGradient id="SVGID_1_" gradientUnits="userSpaceOnUse" x1="58.3228" y1="30.3" x2="142.9259" y2="151.1259" gradientTransform="matrix(1 0 0 -1 0 142)">
		<stop  offset="0.1398" style="stop-color:#078AB3"/>
		<stop  offset="0.5484" style="stop-color:#19C2E8"/>
		<stop  offset="0.914" style="stop-color:#5FC8D5"/>
	</linearGradient>
	<path class="st0" d="M38.9,98.1c14.8-66.4,76.6-90,123.2-93.8c-47.2,21.3-55.3,49.2-54.7,93.8C105.9,85.9,59.3,49.8,38.9,98.1z"/>
	
		<linearGradient id="SVGID_2_" gradientUnits="userSpaceOnUse" x1="123.2458" y1="32.7848" x2="161.0857" y2="86.8258" gradientTransform="matrix(1 0 0 -1 0 142)">
		<stop  offset="0.1452" style="stop-color:#0086B3"/>
		<stop  offset="0.5484" style="stop-color:#46C6E9"/>
		<stop  offset="0.9946" style="stop-color:#74CDD6"/>
	</linearGradient>
	<path class="st1" d="M167.7,98.4c-33.5-20.7-53.3-17.4-59.9,0c0.7-19.5,12.6-46.1,32.9-57.5C139.2,60.4,141.6,66.1,167.7,98.4z"/>
	<g>
		<path class="st2" d="M6.9,121.2h4.7l2,5.7l0,0l0.8-3.1l0,0v3.4l-2.4,7.9h-0.5l-3.9-11.6c-0.1-0.3-0.2-0.6-0.3-0.8
			c-0.2-0.3-0.2-0.5-0.6-0.5c-0.2,0-0.7-0.1-0.7-0.5C6.1,121.2,6.6,121.2,6.9,121.2z M7.7,125.9L7.7,125.9l1.1,3.1v3.2
			c0.3,2.3,1.5,1.6,1.5,2.4c0,0.6-0.8,0.5-1,0.5H7.2c-0.2,0-1,0-1-0.5c0-0.8,1.2-0.1,1.5-2.4V125.9z M15.4,121.2h4.9
			c0.1,0,0.7,0,0.7,0.6c0,0.3-0.2,0.4-0.4,0.5c-0.7,0.2-0.6,0.3-0.6,1v9.8c0,0.7,0,0.8,0.6,1c0.2,0.1,0.4,0.2,0.4,0.5
			c0,0.5-0.6,0.6-0.7,0.6H15c-0.1,0-0.7,0-0.7-0.6c0-0.3,0.2-0.4,0.4-0.5c0.7-0.2,0.6-0.3,0.6-1v-11.9H15.4z"/>
		<path class="st2" d="M39.5,125.9l-1.8,6.4c-0.3,1.1,0,1.5,0.6,1.7c0.3,0.1,0.6,0.2,0.6,0.6c0,0.5-0.6,0.5-1,0.5h-2.1
			c-0.4,0-1,0-1-0.6c0-0.4,0.3-0.4,0.7-0.6c0.4-0.2,0.9-0.6,1.3-2l2.2-8.2h0L39.5,125.9z M41.5,131.5h-2.7l0.3-1.1h2.3l-1.9-8.3
			l0.2-1h4.1l2.8,11.8c0.1,0.5,0.1,0.9,0.7,1.1c0.3,0.1,0.5,0.2,0.5,0.6c0,0.5-0.7,0.5-1,0.5H42c-0.4,0-0.9,0-0.9-0.5
			c0-0.3,0.1-0.4,0.4-0.5c0.5-0.3,0.6-0.4,0.4-1.1L41.5,131.5z"/>
		<path class="st2" d="M62.9,123.2c0-0.7,0-0.8-0.6-1c-0.2-0.1-0.4-0.2-0.4-0.5c0-0.5,0.6-0.6,0.7-0.6h4.9V133c0,0.7,0,0.8,0.6,1
			c0.2,0.1,0.4,0.2,0.4,0.5c0,0.5-0.6,0.6-0.7,0.6h-5.3c-0.1,0-0.7,0-0.7-0.6c0-0.3,0.2-0.4,0.4-0.5c0.7-0.2,0.6-0.3,0.6-1
			L62.9,123.2L62.9,123.2z M68.3,121.2L68.3,121.2c1.3,0,2.6,0,3.7,0.5c1.3,0.6,1.9,1.6,1.9,3.1c0,2.1-1.4,3.1-3.3,3.5l0,0
			c1.7,0.2,3.3,0.7,3.3,2.7v1.6c0,0.2-0.1,0.5,0.2,0.5c0.3,0,0.4-0.5,0.8-0.5c0.2,0,0.5,0.3,0.5,0.5c0,0.5-0.6,1.2-1,1.6
			c-0.6,0.5-1.3,0.7-2.1,0.7c-0.8,0-1.5-0.2-2.1-0.8c-0.7-0.7-0.7-1.5-0.7-2.4V131c0-0.9,0-1.9-1.1-2v-1.1c1-0.1,1.1-0.7,1.1-1.6
			V124c0-0.9-0.2-1.4-1.1-1.7v-1.1H68.3z"/>
		<path class="st2" d="M95.1,133c0,0.7,0,0.8,0.6,1c0.2,0.1,0.4,0.2,0.4,0.5c0,0.5-0.6,0.6-0.7,0.6h-5.3c-0.1,0-0.7,0-0.7-0.6
			c0-0.3,0.2-0.4,0.4-0.5c0.7-0.2,0.6-0.3,0.6-1v-9.8c0-0.7,0-0.8-0.6-1c-0.2-0.1-0.4-0.2-0.4-0.5c0-0.5,0.6-0.6,0.7-0.6h5.3
			c0.1,0,0.7,0,0.7,0.6c0,0.3-0.2,0.4-0.4,0.5c-0.7,0.2-0.6,0.3-0.6,1V133z"/>
		<path class="st2" d="M112.3,124.7L112.3,124.7l1.1,1.9v5.6c0.3,2.3,1.5,1.6,1.5,2.4c0,0.6-0.8,0.5-1,0.5h-2.1c-0.2,0-1,0-1-0.5
			c0-0.8,1.2-0.1,1.5-2.4V124.7z M122,130.6v4.5h-2.8l-6.8-11.8c-0.3-0.5-0.4-0.8-1-1c-0.3-0.1-0.6-0.2-0.6-0.6c0-0.6,0.6-0.6,1-0.6
			h4.8L122,130.6z M120.9,124.5c0-2.7-1.5-2-1.5-2.8c0-0.5,0.6-0.6,0.8-0.6h2.5c0.2,0,0.8,0,0.8,0.6c0,0.9-1.5,0.1-1.5,2.8v4.5l0,0
			l-1-1.9v-2.6H120.9z"/>
		<path class="st2" d="M138.7,121.2h4.9v14h-4.9c-0.1,0-0.7,0-0.7-0.6c0-0.3,0.2-0.4,0.4-0.5c0.7-0.2,0.6-0.3,0.6-1v-9.8
			c0-0.7,0-0.8-0.6-1c-0.2-0.1-0.4-0.2-0.4-0.5C138,121.2,138.6,121.2,138.7,121.2z M144.5,121.2h4.2v3.8c0,0.1,0,0.4-0.6,0.4
			c-0.3,0-0.4-0.2-0.5-0.5c-0.5-1.5-1.4-2.4-3.1-2.7L144.5,121.2L144.5,121.2z M144.5,127.4c0.8-0.2,1.1-0.9,1.3-1.6
			c0.1-0.3,0.2-0.6,0.6-0.6c0.6,0,0.5,0.7,0.5,0.8v4c0,0.1,0.1,0.8-0.5,0.8c-0.4,0-0.5-0.3-0.6-0.6c-0.2-0.7-0.5-1.4-1.3-1.6V127.4z
			 M144.5,134c1.5-0.2,2.7-1.2,3.2-2.7c0.1-0.3,0.2-0.6,0.6-0.6c0.6,0,0.5,0.6,0.5,0.6v3.7h-4.3V134z"/>
		<path class="st2" d="M164.7,123.2c0-0.7,0-0.8-0.6-1c-0.2-0.1-0.4-0.2-0.4-0.5c0-0.5,0.6-0.6,0.7-0.6h4.9V133c0,0.7,0,0.8,0.6,1
			c0.2,0.1,0.4,0.2,0.4,0.5c0,0.5-0.6,0.6-0.7,0.6h-5.3c-0.1,0-0.7,0-0.7-0.6c0-0.3,0.2-0.4,0.4-0.5c0.7-0.2,0.6-0.3,0.6-1v-9.8
			H164.7z M170.1,121.2L170.1,121.2c1.3,0,2.6,0,3.7,0.5c1.3,0.6,1.9,1.6,1.9,3.1c0,2.1-1.4,3.1-3.3,3.5l0,0
			c1.7,0.2,3.3,0.7,3.3,2.7v1.6c0,0.2-0.1,0.5,0.2,0.5s0.4-0.5,0.8-0.5c0.2,0,0.5,0.3,0.5,0.5c0,0.5-0.6,1.2-1,1.6
			c-0.6,0.5-1.3,0.7-2.1,0.7s-1.5-0.2-2.1-0.8c-0.7-0.7-0.7-1.5-0.7-2.4V131c0-0.9,0-1.9-1.1-2v-1.1c1-0.1,1.1-0.7,1.1-1.6V124
			c0-0.9-0.2-1.4-1.1-1.7L170.1,121.2L170.1,121.2z"/>
		<path class="st2" d="M196.3,122c-0.9,0.3-1,0.9-1,1.3v9.7c0,0.5,0.1,1,1,1.3v1.1c-4-0.4-5.8-3.6-5.8-7.3s1.8-6.9,5.8-7.3V122z
			 M197.2,134.3c0.9-0.3,1-0.9,1-1.3v-9.7c0-0.5-0.1-1-1-1.3v-1.1c4,0.4,5.8,3.6,5.8,7.3s-1.8,6.9-5.8,7.3V134.3z"/>
	</g>
</g>
<g>
</g>
<g>
</g>
<g>
</g>
<g>
</g>
<g>
</g>
<g>
</g>
<g>
</g>
<g>
</g>
<g>
</g>
<g>
</g>
<g>
</g>
<g>
</g>
<g>
</g>
<g>
</g>
<g>
</g>
</svg>
