<?xml version="1.0" encoding="utf-8"?>
<!-- Generator: Adobe Illustrator 21.0.2, SVG Export Plug-In . SVG Version: 6.00 Build 0)  -->
<svg version="1.1" id="Layer_1" xmlns="http://www.w3.org/2000/svg" xmlns:xlink="http://www.w3.org/1999/xlink" x="0px" y="0px"
	 viewBox="0 0 19 13" style="enable-background:new 0 0 19 13;" xml:space="preserve">
<style type="text/css">
	.st0{fill:#00547D;}
</style>
<path class="st0" d="M18.2,2c-0.2-0.8-0.8-1.4-1.6-1.6C15.1,0,9.3,0,9.3,0S3.5,0,2,0.4C1.2,0.6,0.6,1.2,0.4,2C0,3.5,0,6.5,0,6.5
	s0,3,0.4,4.5c0.2,0.8,0.8,1.4,1.6,1.6C3.5,13,9.3,13,9.3,13s5.8,0,7.3-0.4c0.8-0.2,1.4-0.8,1.6-1.6c0.4-1.5,0.4-4.5,0.4-4.5
	S18.6,3.5,18.2,2z M7.4,9.3V3.7l4.8,2.8L7.4,9.3z"/>
</svg>
